<svg width="17" height="12" viewBox="0 0 17 12" fill="none" xmlns="http://www.w3.org/2000/svg">
<path d="M0.5 2C0.5 1.46957 0.710714 0.960859 1.08579 0.585786C1.46086 0.210714 1.96957 0 2.5 0H8.5C9.03043 0 9.53914 0.210714 9.91421 0.585786C10.2893 0.960859 10.5 1.46957 10.5 2V10C10.5 10.5304 10.2893 11.0391 9.91421 11.4142C9.53914 11.7893 9.03043 12 8.5 12H2.5C1.96957 12 1.46086 11.7893 1.08579 11.4142C0.710714 11.0391 0.5 10.5304 0.5 10V2ZM13.053 3.106C12.8869 3.18899 12.7472 3.31658 12.6496 3.47447C12.5519 3.63237 12.5001 3.81434 12.5 4V8C12.5001 8.18566 12.5519 8.36763 12.6496 8.52553C12.7472 8.68342 12.8869 8.81101 13.053 8.894L15.053 9.894C15.2054 9.97017 15.3748 10.0061 15.545 9.99845C15.7152 9.99079 15.8806 9.93975 16.0256 9.85019C16.1706 9.76064 16.2902 9.63552 16.3733 9.48673C16.4563 9.33793 16.4999 9.17039 16.5 9V3C16.4999 2.82961 16.4563 2.66207 16.3733 2.51327C16.2902 2.36448 16.1706 2.23936 16.0256 2.14981C15.8806 2.06025 15.7152 2.00921 15.545 2.00155C15.3748 1.99388 15.2054 2.02983 15.053 2.106L13.053 3.106Z" fill="#9CA3AF"/>
</svg>
