<svg width="106" height="49" viewBox="0 0 106 49" fill="none" xmlns="http://www.w3.org/2000/svg">
<g clip-path="url(#clip0_572_1355)">
<path d="M92.1289 21.379C90.3398 21.7918 85.6148 22.0212 85.6148 22.0212L85.0337 23.8867C85.0337 23.8867 87.3733 23.688 89.0859 23.8562C89.0859 23.8562 89.6364 23.8103 89.6976 24.4678C89.7282 25.1406 89.6517 25.844 89.6517 25.844C89.6517 25.844 89.6058 26.2569 89.0401 26.3639C88.3825 26.471 83.9481 26.6697 83.9481 26.6697L83.2294 29.0858C83.2294 29.0858 82.9694 29.6362 83.5658 29.4833C84.1163 29.3304 88.7648 28.4435 89.3765 28.5659C90.0187 28.7188 90.7527 29.6057 90.5386 30.4008C90.2939 31.3642 85.6454 34.3307 82.8318 34.1319C82.8318 34.1319 81.3486 34.2236 80.11 32.2205C78.9172 30.3091 80.5228 26.7156 80.5228 26.7156C80.5228 26.7156 79.8041 25.0336 80.3393 24.4219C80.3393 24.4219 80.6452 24.162 81.5626 24.0855L82.7095 21.7307C82.7095 21.7307 81.4097 21.8071 80.6452 20.8591C79.9418 19.9416 79.8806 19.544 80.4311 19.2994C81.0122 18.9935 86.3947 18.0302 90.0952 18.1525C90.0952 18.1525 91.3949 17.9996 92.5418 20.2474C92.5418 20.2474 93.0617 21.1649 92.1442 21.379M78.1833 30.4314C77.7245 31.5477 76.4554 32.7251 74.9262 32.0064C73.3665 31.2724 70.9046 26.2569 70.9046 26.2569C70.9046 26.2569 69.9872 24.3913 69.8037 24.4525C69.8037 24.4525 69.6049 24.0855 69.4978 26.1346C69.3449 28.1683 69.5284 32.1287 68.6874 32.7557C67.9228 33.3673 67.0054 33.1074 66.4855 32.3887C66.0573 31.67 65.8738 29.9421 66.1185 26.9297C66.3937 23.9173 67.0818 20.7062 67.9534 19.7122C68.8709 18.703 69.6049 19.437 69.8801 19.7122C69.8801 19.7122 71.0575 20.7826 73.0454 23.9479L73.3818 24.529C73.3818 24.529 75.1862 27.5413 75.3697 27.5261C75.3697 27.5261 75.5226 27.679 75.6449 27.5566C75.8284 27.5108 75.7673 26.5321 75.7673 26.5321C75.7673 26.5321 75.4308 23.2751 73.7488 17.7702C73.7488 17.7702 73.5041 17.0668 73.6723 16.394C73.8253 15.7824 74.4828 16.0882 74.4828 16.0882C74.4828 16.0882 77.0211 17.3115 78.2597 21.4401C79.483 25.5688 78.6573 29.3151 78.1986 30.4314M65.7362 19.8346C65.4915 20.2627 65.3845 20.8591 64.3294 21.0273C64.3294 21.0273 54.0843 21.746 53.5796 22.4646C53.5796 22.4646 53.2432 22.8928 53.7937 22.9998C54.3748 23.1222 56.6991 23.428 57.8 23.4892C58.9927 23.4892 62.9991 23.5197 64.467 25.3241C64.467 25.3241 65.308 26.1804 65.2775 28.1224C65.2469 30.1103 64.8952 30.8137 64.1153 31.5324C63.3049 32.2052 56.3627 35.3246 51.8823 30.5537C51.8823 30.5537 49.8333 28.26 52.601 26.5168C52.601 26.5168 54.5889 25.2935 59.6809 26.7156C59.6809 26.7156 61.21 27.2661 61.1488 27.8319C61.0571 28.4435 59.8796 29.0552 58.167 29.0246C56.5156 28.9787 55.2923 28.1836 55.5369 28.3212C55.7663 28.3977 53.7478 27.3426 53.1209 28.0613C52.5093 28.7341 52.6622 29.1316 53.2738 29.5445C54.8029 30.4314 60.8124 30.1103 62.6015 28.1071C62.6015 28.1071 63.3202 27.2967 62.2345 26.6392C61.1641 26.0275 58.0447 25.6452 56.8367 25.5994C55.6898 25.5382 51.393 25.5994 50.7508 24.4831C50.7508 24.4831 50.1391 23.688 50.8119 21.5166C51.5153 19.2229 56.5156 18.336 58.6869 18.1525C58.6869 18.1525 64.6505 17.9079 65.7668 19.1312C65.7668 19.1312 65.9197 19.4064 65.7362 19.8193M48.8241 33.2756C48.1054 33.8108 46.5763 33.5814 46.1328 32.9697C45.7046 32.4345 45.5517 30.3244 45.6282 27.0062C45.7352 23.6115 45.7811 19.4523 46.5457 18.7795C47.3102 18.1219 47.769 18.703 48.0748 19.1464C48.3806 19.6052 48.7782 20.1098 48.8394 21.1649C48.9311 22.2353 49.1911 27.7401 49.1911 27.7401C49.1911 27.7401 49.5275 32.7557 48.8394 33.2756M50.3532 15.3848C48.243 16.1035 46.8056 15.8741 45.5823 15.3389C45.0471 16.3023 44.726 16.5928 44.3284 16.654C43.7168 16.7151 43.1816 15.7365 43.1051 15.4307C42.9828 15.2013 42.6923 14.7884 43.044 13.8557C41.8513 12.7853 41.7595 11.3479 41.9736 10.3846C42.2488 9.25301 44.2673 5.00204 50.3838 4.49743C50.3838 4.49743 53.3809 4.28335 53.9008 5.87364H53.9925C53.9925 5.87364 56.8978 5.87364 56.8367 8.47315C56.8367 11.0727 53.6255 14.3144 50.3532 15.4307M53.075 7.98383C51.1483 8.28966 48.1818 10.8586 46.7597 12.9841C48.9464 13.3816 52.7692 13.2287 54.4818 9.77291C54.4818 9.77291 55.2923 7.60155 53.075 7.98383ZM44.619 9.66587C44.0073 10.6598 43.9767 11.2562 44.2673 11.6537C44.986 10.5833 46.2551 8.90131 48.1665 7.58626C46.6986 7.73917 45.46 8.35082 44.619 9.66587ZM96.7163 33.1685C95.3095 36.6244 94.1168 40.1261 93.4286 45.371C93.4286 45.371 93.2757 46.3955 92.4347 46.0591C91.5937 45.7532 90.2175 44.377 89.9117 42.435C89.6058 39.8967 90.7374 35.6151 93.0464 30.6913C92.3736 29.621 91.8995 28.0307 92.2818 25.7981C92.2818 25.7981 92.8935 21.6695 97.0221 17.9384C97.0221 17.9384 97.5114 17.5256 97.7867 17.6632C98.1231 17.8161 97.9854 19.1312 97.7102 19.804C97.4655 20.4462 95.6306 23.6268 95.6306 23.6268C95.6306 23.6268 94.4837 25.7981 94.8049 27.4955C96.9762 24.162 101.915 17.4032 104.974 19.544C106.916 20.9202 106.916 25.3547 105.463 27.9236C104.316 29.9574 101.074 34.1625 96.7468 33.1838M103.108 22.7858C101.976 24.0091 99.958 26.3333 98.3677 29.4833C100.05 29.2998 101.686 28.3671 102.191 27.893C103.001 27.1744 104.867 25.2324 104.576 22.6634C104.576 22.6634 104.392 21.3178 103.108 22.7858ZM34.6032 34.9729C29.1901 36.6244 24.0828 35.8598 21.2998 35.1258C21.2234 36.2574 21.101 36.7314 20.9175 36.9149C20.7035 37.1595 18.9297 38.1688 17.951 36.7314C17.5229 36.0433 17.3088 34.8047 17.1865 33.6731C10.9171 30.829 8.01172 26.6392 7.91997 26.4862C7.76706 26.3333 6.34497 24.8501 7.76706 23.0151C9.09739 21.3637 13.5013 19.6969 17.4464 19.0394C17.5993 15.6753 17.9663 13.0758 18.4403 11.929C19.0061 10.5528 19.7248 11.7761 20.367 12.6935C20.8869 13.3816 21.2081 16.3329 21.2386 18.6877C23.8076 18.5654 25.3673 18.7489 28.2267 19.2994C31.9884 19.9416 34.4962 21.8683 34.2974 24.0396C34.1139 26.1804 32.1566 27.0673 31.392 27.1285C30.6275 27.1896 29.4042 26.6239 29.4042 26.6239C28.5479 26.2263 29.3277 25.8593 30.3217 25.4312C31.4226 24.896 31.178 24.3608 31.178 24.3608C30.7804 23.1375 25.9025 22.327 21.0552 22.327C21.0552 25.003 21.1622 29.4375 21.2386 32.0217C24.6333 32.6639 27.1717 32.5263 27.1717 32.5263C27.1717 32.5263 39.5576 32.1746 39.9093 24.269C40.2915 16.3481 27.5234 8.76369 18.1192 6.37825C8.7304 3.91636 3.40905 5.65956 2.95031 5.88893C2.4457 6.13359 2.90444 6.22534 2.90444 6.22534C2.90444 6.22534 3.40905 6.30179 4.32652 6.60762C5.244 6.91344 4.51002 7.37218 4.51002 7.37218C2.90444 7.92267 1.11536 7.60155 0.763662 6.86757C0.411964 6.14888 0.993031 5.49136 1.68114 4.52801C2.32337 3.53408 3.05735 3.56466 3.05735 3.56466C14.6787 -0.487524 28.869 6.77582 28.869 6.77582C42.1418 13.4734 44.4049 21.3484 44.1602 24.4066C43.9462 27.419 42.784 32.511 34.6032 34.9882M9.06681 24.0396C7.75176 24.6513 8.66924 25.6299 8.66924 25.6299C11.1464 28.2753 14.1741 29.9421 17.0794 30.9819C17.4158 26.3945 17.3853 24.7583 17.3853 22.4494C12.8896 22.7552 10.2901 23.4892 9.06681 24.0396Z" fill="white"/>
</g>
<defs>
<clipPath id="clip0_572_1355">
<rect width="106" height="48" fill="white" transform="translate(0 0.335449)"/>
</clipPath>
</defs>
</svg>
