<svg width="112" height="49" viewBox="0 0 112 49" fill="none" xmlns="http://www.w3.org/2000/svg">
<g clip-path="url(#clip0_572_1344)">
<path fill-rule="evenodd" clip-rule="evenodd" d="M92.3302 38.2809L88.1839 33.6238L84.0677 38.2809H75.4145L83.8774 28.7765L75.4145 19.272H84.3381L88.5244 23.889L92.5606 19.272H101.174L92.7508 28.7364L101.294 38.2809H92.3302ZM58.7993 38.2809V8.33542H75.4145V15.0156H65.84V19.272H75.4145V25.6918H65.84V31.5807H75.4145V38.2809H58.7993Z" fill="#FF6600"/>
<path fill-rule="evenodd" clip-rule="evenodd" d="M51.7886 8.33542V20.594H51.7085C50.2671 18.9528 48.1506 18.0663 45.9698 18.1904C41.5824 18.2289 37.769 21.2123 36.6757 25.4614C35.2836 20.8945 31.6681 18.1002 26.3901 18.1002C22.0735 18.1002 18.6684 20.0332 16.8856 23.198V19.272H7.95208V15.0055H17.6869V8.33542H0V38.2809H7.95208V25.6918H15.8741C15.6269 26.6739 15.5057 27.6836 15.5136 28.6963C15.5136 34.9458 20.2808 39.3225 26.3801 39.3225C31.4978 39.3225 34.873 36.9188 36.6557 32.5322H29.8453C29.1535 33.7625 27.7777 34.4425 26.3801 34.2448C24.1608 34.1959 22.3843 32.3883 22.374 30.1686H36.2751C36.876 35.1762 40.7419 39.4026 46.0399 39.4026C48.3097 39.4098 50.433 38.2824 51.6985 36.398H51.7786V38.2809H58.7893V8.33542H51.7886ZM22.6143 25.7819C22.9468 23.9667 24.5247 22.6455 26.37 22.6371C28.2597 22.5416 29.9083 23.9075 30.1658 25.7819H22.6143ZM47.5222 33.724C44.9382 33.724 43.3358 31.3203 43.3358 28.7965C43.3358 26.1124 44.7379 23.5285 47.5222 23.5285C50.3064 23.5285 51.5282 26.1124 51.5282 28.7965C51.5282 31.4806 50.3565 33.724 47.5322 33.724H47.5222Z" fill="#4D148C"/>
<path fill-rule="evenodd" clip-rule="evenodd" d="M111.319 34.7055C111.275 33.1015 109.947 31.8325 108.343 31.8616C106.738 31.8907 105.457 33.2071 105.471 34.8116C105.486 36.4161 106.79 37.7094 108.395 37.71C109.19 37.7277 109.956 37.4141 110.511 36.8442C111.065 36.2744 111.358 35.4997 111.319 34.7055ZM107.633 34.8557V36.8587H107.002V32.4921H108.575C109.496 32.4921 109.917 32.8927 109.917 33.6839C109.933 34.136 109.612 34.5302 109.166 34.6053C109.526 34.6654 109.667 34.9859 109.747 35.6068C109.774 36.0222 109.865 36.431 110.017 36.8187H109.266C109.143 36.3368 109.046 35.8487 108.975 35.3565C108.91 35.0177 108.584 34.7946 108.244 34.8557H107.633ZM108.425 34.2948C109.036 34.2948 109.216 33.9643 109.216 33.6839C109.216 33.4035 109.046 33.073 108.425 33.073H107.633V34.3049H108.425V34.2948ZM104.789 34.6955C104.773 33.2296 105.643 31.899 106.993 31.3268C108.343 30.7545 109.904 31.0539 110.947 32.0847C111.989 33.1155 112.306 34.6736 111.749 36.0296C111.191 37.3855 109.871 38.2708 108.405 38.2709C107.446 38.2927 106.52 37.9243 105.838 37.2502C105.157 36.5761 104.778 35.6541 104.789 34.6955Z" fill="#FF6600"/>
</g>
<defs>
<clipPath id="clip0_572_1344">
<rect width="112" height="48" fill="white" transform="translate(0 0.335449)"/>
</clipPath>
</defs>
</svg>
