<svg width="18" height="18" viewBox="0 0 18 18" fill="none" xmlns="http://www.w3.org/2000/svg">
<path d="M5.80078 14.0464C5.80078 13.9761 5.73047 13.9058 5.625 13.9058C5.51953 13.9058 5.44922 13.9761 5.44922 14.0464C5.44922 14.1167 5.51953 14.187 5.625 14.1519C5.73047 14.1519 5.80078 14.1167 5.80078 14.0464ZM4.71094 13.8706C4.71094 13.9409 4.78125 14.0464 4.88672 14.0464C4.95703 14.0815 5.0625 14.0464 5.09766 13.9761C5.09766 13.9058 5.0625 13.8354 4.95703 13.8003C4.85156 13.7651 4.74609 13.8003 4.71094 13.8706ZM6.29297 13.8354C6.1875 13.8354 6.11719 13.9058 6.11719 14.0112C6.11719 14.0815 6.22266 14.1167 6.32812 14.0815C6.43359 14.0464 6.50391 14.0112 6.46875 13.9409C6.46875 13.8706 6.36328 13.8003 6.29297 13.8354ZM8.57812 0.335449C3.72656 0.335449 0 4.06201 0 8.91357C0 12.8159 2.42578 16.1558 5.94141 17.3511C6.39844 17.4214 6.53906 17.1401 6.53906 16.9292C6.53906 16.6831 6.53906 15.4878 6.53906 14.7495C6.53906 14.7495 4.07812 15.2769 3.55078 13.6948C3.55078 13.6948 3.16406 12.6753 2.60156 12.4292C2.60156 12.4292 1.79297 11.8667 2.63672 11.8667C2.63672 11.8667 3.51562 11.937 4.00781 12.7808C4.78125 14.1519 6.04688 13.7651 6.57422 13.519C6.64453 12.9565 6.85547 12.5698 7.13672 12.3237C5.16797 12.1128 3.16406 11.8315 3.16406 8.45654C3.16406 7.47217 3.44531 7.01514 4.00781 6.38232C3.90234 6.13623 3.62109 5.22217 4.11328 3.9917C4.81641 3.78076 6.53906 4.94092 6.53906 4.94092C7.24219 4.72998 7.98047 4.65967 8.71875 4.65967C9.49219 4.65967 10.2305 4.72998 10.9336 4.94092C10.9336 4.94092 12.6211 3.74561 13.3594 3.9917C13.8516 5.22217 13.5352 6.13623 13.4648 6.38232C14.0273 7.01514 14.3789 7.47217 14.3789 8.45654C14.3789 11.8315 12.3047 12.1128 10.3359 12.3237C10.6523 12.605 10.9336 13.1323 10.9336 13.9761C10.9336 15.1362 10.8984 16.6128 10.8984 16.894C10.8984 17.1401 11.0742 17.4214 11.5312 17.3159C15.0469 16.1558 17.4375 12.8159 17.4375 8.91357C17.4375 4.06201 13.4648 0.335449 8.57812 0.335449ZM3.41016 12.4644C3.33984 12.4995 3.375 12.605 3.41016 12.6753C3.48047 12.7104 3.55078 12.7456 3.62109 12.7104C3.65625 12.6753 3.65625 12.5698 3.58594 12.4995C3.51562 12.4644 3.44531 12.4292 3.41016 12.4644ZM3.02344 12.1831C2.98828 12.2534 3.02344 12.2886 3.09375 12.3237C3.16406 12.3589 3.23438 12.3589 3.26953 12.2886C3.26953 12.2534 3.23438 12.2183 3.16406 12.1831C3.09375 12.1479 3.05859 12.1479 3.02344 12.1831ZM4.14844 13.4487C4.11328 13.4839 4.11328 13.5894 4.21875 13.6597C4.28906 13.73 4.39453 13.7651 4.42969 13.6948C4.46484 13.6597 4.46484 13.5542 4.39453 13.4839C4.32422 13.4136 4.21875 13.3784 4.14844 13.4487ZM3.76172 12.9214C3.69141 12.9565 3.69141 13.062 3.76172 13.1323C3.83203 13.2026 3.90234 13.2378 3.97266 13.2026C4.00781 13.1675 4.00781 13.062 3.97266 12.9917C3.90234 12.9214 3.83203 12.8862 3.76172 12.9214Z" fill="#9CA3AF"/>
</svg>
