<svg width="16" height="17" viewBox="0 0 16 17" fill="none" xmlns="http://www.w3.org/2000/svg">
<path fill-rule="evenodd" clip-rule="evenodd" d="M8.23438 2.96982C8.3844 2.81985 8.58784 2.7356 8.79998 2.7356C9.01211 2.7356 9.21555 2.81985 9.36557 2.96982L14.1656 7.76982C14.3156 7.91985 14.3998 8.12329 14.3998 8.33542C14.3998 8.54756 14.3156 8.751 14.1656 8.90102L9.36557 13.701C9.21469 13.8468 9.01261 13.9274 8.80285 13.9256C8.5931 13.9237 8.39245 13.8396 8.24412 13.6913C8.09579 13.543 8.01166 13.3423 8.00984 13.1325C8.00801 12.9228 8.08865 12.7207 8.23438 12.5698L11.6688 9.13542H2.39998C2.1878 9.13542 1.98432 9.05114 1.83429 8.90111C1.68426 8.75108 1.59998 8.5476 1.59998 8.33542C1.59998 8.12325 1.68426 7.91977 1.83429 7.76974C1.98432 7.61971 2.1878 7.53542 2.39998 7.53542H11.6688L8.23438 4.10102C8.0844 3.951 8.00015 3.74756 8.00015 3.53542C8.00015 3.32329 8.0844 3.11985 8.23438 2.96982Z" fill="#3F83F8"/>
</svg>
