<svg width="17" height="11" viewBox="0 0 17 11" fill="none" xmlns="http://www.w3.org/2000/svg">
<path fill-rule="evenodd" clip-rule="evenodd" d="M10.751 0.739442C10.9385 0.551971 11.1928 0.446655 11.458 0.446655C11.7232 0.446655 11.9775 0.551971 12.165 0.739442L16.165 4.73944C16.3525 4.92697 16.4578 5.18128 16.4578 5.44644C16.4578 5.71161 16.3525 5.96591 16.165 6.15344L12.165 10.1534C11.9764 10.3356 11.7238 10.4364 11.4616 10.4341C11.1994 10.4318 10.9486 10.3267 10.7632 10.1413C10.5778 9.95585 10.4726 9.70504 10.4703 9.44284C10.4681 9.18065 10.5688 8.92804 10.751 8.73944L13.044 6.44644H1.45801C1.19279 6.44644 0.938437 6.34108 0.750901 6.15355C0.563365 5.96601 0.458008 5.71166 0.458008 5.44644C0.458008 5.18123 0.563365 4.92687 0.750901 4.73934C0.938437 4.5518 1.19279 4.44644 1.45801 4.44644H13.044L10.751 2.15344C10.5635 1.96591 10.4582 1.71161 10.4582 1.44644C10.4582 1.18128 10.5635 0.92697 10.751 0.739442Z" fill="white"/>
</svg>
