<svg width="16" height="16" viewBox="0 0 16 16" fill="none" xmlns="http://www.w3.org/2000/svg">
<path d="M8.80004 2.40002C8.58787 2.40002 8.38438 2.48431 8.23436 2.63434C8.08433 2.78437 8.00004 2.98785 8.00004 3.20002C8.00004 3.4122 8.08433 3.61568 8.23436 3.76571C8.38438 3.91574 8.58787 4.00002 8.80004 4.00002H10.8688L5.83444 9.03442C5.75803 9.10822 5.69709 9.1965 5.65516 9.2941C5.61323 9.3917 5.59116 9.49668 5.59024 9.6029C5.58932 9.70913 5.60956 9.81447 5.64978 9.91279C5.69001 10.0111 5.74941 10.1004 5.82452 10.1755C5.89964 10.2507 5.98896 10.3101 6.08728 10.3503C6.18559 10.3905 6.29094 10.4107 6.39716 10.4098C6.50339 10.4089 6.60836 10.3868 6.70596 10.3449C6.80357 10.303 6.89184 10.242 6.96564 10.1656L12 5.13122V7.20002C12 7.4122 12.0843 7.61568 12.2344 7.76571C12.3844 7.91574 12.5879 8.00002 12.8 8.00002C13.0122 8.00002 13.2157 7.91574 13.3657 7.76571C13.5158 7.61568 13.6 7.4122 13.6 7.20002V3.20002C13.6 2.98785 13.5158 2.78437 13.3657 2.63434C13.2157 2.48431 13.0122 2.40002 12.8 2.40002H8.80004Z" fill="#9CA3AF"/>
<path d="M4.00002 4C3.57568 4 3.16871 4.16857 2.86865 4.46863C2.5686 4.76869 2.40002 5.17565 2.40002 5.6V12C2.40002 12.4243 2.5686 12.8313 2.86865 13.1314C3.16871 13.4314 3.57568 13.6 4.00002 13.6H10.4C10.8244 13.6 11.2313 13.4314 11.5314 13.1314C11.8315 12.8313 12 12.4243 12 12V9.6C12 9.38783 11.9157 9.18434 11.7657 9.03431C11.6157 8.88429 11.4122 8.8 11.2 8.8C10.9879 8.8 10.7844 8.88429 10.6343 9.03431C10.4843 9.18434 10.4 9.38783 10.4 9.6V12H4.00002V5.6H6.40002C6.6122 5.6 6.81568 5.51571 6.96571 5.36569C7.11574 5.21566 7.20002 5.01217 7.20002 4.8C7.20002 4.58783 7.11574 4.38434 6.96571 4.23431C6.81568 4.08429 6.6122 4 6.40002 4H4.00002Z" fill="#9CA3AF"/>
</svg>
