<svg width="16" height="17" viewBox="0 0 16 17" fill="none" xmlns="http://www.w3.org/2000/svg">
<path d="M13.0001 6.83545C13.6092 6.83547 14.2039 6.65005 14.7051 6.30385C15.2064 5.95765 15.5903 5.46707 15.8059 4.89736C16.0215 4.32764 16.0586 3.70579 15.9122 3.11449C15.7658 2.52318 15.4429 1.99046 14.9864 1.58715C14.5299 1.18384 13.9614 0.929065 13.3565 0.856697C12.7517 0.78433 12.1392 0.897802 11.6004 1.18202C11.0616 1.46625 10.6221 1.90775 10.3404 2.44783C10.0586 2.9879 9.94792 3.60095 10.0231 4.20545L5.08305 6.67545C4.65928 6.2668 4.12465 5.99187 3.54574 5.8849C2.96684 5.77792 2.36926 5.84364 1.82744 6.07385C1.28561 6.30407 0.823499 6.68862 0.498659 7.17958C0.173819 7.67055 0.000610352 8.24625 0.000610352 8.83495C0.000610352 9.42366 0.173819 9.99935 0.498659 10.4903C0.823499 10.9813 1.28561 11.3658 1.82744 11.5961C2.36926 11.8263 2.96684 11.892 3.54574 11.785C4.12465 11.678 4.65928 11.4031 5.08305 10.9945L10.0231 13.4645C9.93555 14.1667 10.0991 14.8773 10.4848 15.4706C10.8706 16.0639 11.4536 16.5017 12.1309 16.7067C12.8082 16.9118 13.5362 16.8707 14.1862 16.5909C14.8362 16.3111 15.3664 15.8105 15.683 15.1776C15.9996 14.5448 16.0823 13.8203 15.9165 13.1323C15.7506 12.4444 15.3469 11.8372 14.7767 11.4181C14.2065 10.999 13.5065 10.795 12.8004 10.842C12.0943 10.8891 11.4276 11.1843 10.9181 11.6755L5.97805 9.20545C6.00832 8.95971 6.00832 8.71119 5.97805 8.46545L10.9181 5.99545C11.4561 6.51545 12.1901 6.83545 13.0001 6.83545Z" fill="#9CA3AF"/>
</svg>
