<svg width="106" height="44" viewBox="0 0 106 44" fill="none" xmlns="http://www.w3.org/2000/svg">
<path d="M92.1293 19.0435C90.3402 19.4564 85.6152 19.6858 85.6152 19.6858L85.0341 21.5513C85.0341 21.5513 87.3737 21.3525 89.0863 21.5207C89.0863 21.5207 89.6368 21.4748 89.6979 22.1324C89.7285 22.8052 89.6521 23.5086 89.6521 23.5086C89.6521 23.5086 89.6062 23.9214 89.0404 24.0285C88.3829 24.1355 83.9484 24.3343 83.9484 24.3343L83.2297 26.7503C83.2297 26.7503 82.9698 27.3008 83.5662 27.1479C84.1166 26.995 88.7652 26.1081 89.3768 26.2304C90.0191 26.3833 90.753 27.2702 90.539 28.0654C90.2943 29.0287 85.6458 31.9952 82.8322 31.7964C82.8322 31.7964 81.3489 31.8882 80.1103 29.885C78.9176 27.9736 80.5232 24.3802 80.5232 24.3802C80.5232 24.3802 79.8045 22.6981 80.3397 22.0865C80.3397 22.0865 80.6455 21.8265 81.563 21.7501L82.7098 19.3952C82.7098 19.3952 81.4101 19.4717 80.6455 18.5236C79.9421 17.6061 79.881 17.2086 80.4314 16.9639C81.0125 16.6581 86.395 15.6947 90.0955 15.8171C90.0955 15.8171 91.3953 15.6642 92.5421 17.912C92.5421 17.912 93.062 18.8294 92.1445 19.0435M78.1836 28.0959C77.7249 29.2122 76.4557 30.3896 74.9266 29.6709C73.3669 28.937 70.905 23.9214 70.905 23.9214C70.905 23.9214 69.9875 22.0559 69.804 22.1171C69.804 22.1171 69.6052 21.7501 69.4982 23.7991C69.3453 25.8328 69.5288 29.7933 68.6878 30.4202C67.9232 31.0319 67.0057 30.7719 66.4858 30.0532C66.0577 29.3345 65.8742 27.6066 66.1188 24.5942C66.3941 21.5819 67.0822 18.3707 67.9538 17.3768C68.8713 16.3676 69.6052 17.1015 69.8805 17.3768C69.8805 17.3768 71.0579 18.4472 73.0458 21.6125L73.3822 22.1935C73.3822 22.1935 75.1865 25.2059 75.37 25.1906C75.37 25.1906 75.523 25.3435 75.6453 25.2212C75.8288 25.1753 75.7676 24.1967 75.7676 24.1967C75.7676 24.1967 75.4312 20.9396 73.7492 15.4348C73.7492 15.4348 73.5045 14.7314 73.6727 14.0586C73.8256 13.4469 74.4831 13.7527 74.4831 13.7527C74.4831 13.7527 77.0215 14.976 78.2601 19.1047C79.4834 23.2333 78.6577 26.9797 78.1989 28.0959M65.7366 17.4991C65.4919 17.9273 65.3849 18.5236 64.3298 18.6918C64.3298 18.6918 54.0846 19.4105 53.58 20.1292C53.58 20.1292 53.2436 20.5574 53.7941 20.6644C54.3752 20.7867 56.6994 21.0925 57.8004 21.1537C58.9931 21.1537 62.9994 21.1843 64.4674 22.9887C64.4674 22.9887 65.3084 23.845 65.2778 25.787C65.2472 27.7748 64.8955 28.4782 64.1157 29.1969C63.3052 29.8697 56.363 32.9891 51.8827 28.2183C51.8827 28.2183 49.8337 25.9246 52.6014 24.1814C52.6014 24.1814 54.5892 22.9581 59.6812 24.3802C59.6812 24.3802 61.2103 24.9307 61.1492 25.4964C61.0574 26.1081 59.88 26.7197 58.1674 26.6891C56.5159 26.6433 55.2926 25.8481 55.5373 25.9858C55.7667 26.0622 53.7482 25.0071 53.1213 25.7258C52.5096 26.3986 52.6625 26.7962 53.2742 27.2091C54.8033 28.0959 60.8128 27.7748 62.6018 25.7717C62.6018 25.7717 63.3205 24.9612 62.2349 24.3037C61.1645 23.6921 58.0451 23.3098 56.837 23.2639C55.6902 23.2027 51.3934 23.2639 50.7511 22.1476C50.7511 22.1476 50.1395 21.3525 50.8123 19.1811C51.5157 16.8875 56.5159 16.0006 58.6873 15.8171C58.6873 15.8171 64.6509 15.5724 65.7671 16.7957C65.7671 16.7957 65.9201 17.0709 65.7366 17.4838M48.8244 30.9401C48.1057 31.4753 46.5766 31.2459 46.1332 30.6343C45.705 30.0991 45.5521 27.9889 45.6286 24.6707C45.7356 21.276 45.7815 17.1168 46.546 16.444C47.3106 15.7865 47.7693 16.3676 48.0752 16.811C48.381 17.2697 48.7786 17.7743 48.8397 18.8294C48.9315 19.8998 49.1914 25.4047 49.1914 25.4047C49.1914 25.4047 49.5278 30.4202 48.8397 30.9401M50.3536 13.0493C48.2434 13.768 46.806 13.5387 45.5827 13.0035C45.0475 13.9668 44.7264 14.2574 44.3288 14.3185C43.7172 14.3797 43.182 13.401 43.1055 13.0952C42.9832 12.8659 42.6926 12.453 43.0443 11.5202C41.8516 10.4498 41.7599 9.01246 41.974 8.04911C42.2492 6.91756 44.2676 2.66659 50.3841 2.16198C50.3841 2.16198 53.3812 1.9479 53.9011 3.53819H53.9929C53.9929 3.53819 56.8982 3.53819 56.837 6.1377C56.837 8.73722 53.6259 11.979 50.3536 13.0952M53.0754 5.64838C51.1487 5.95421 48.1822 8.52314 46.7601 10.6486C48.9468 11.0462 52.7696 10.8933 54.4822 7.43746C54.4822 7.43746 55.2926 5.2661 53.0754 5.64838ZM44.6193 7.33042C44.0077 8.32435 43.9771 8.92071 44.2676 9.31828C44.9863 8.2479 46.2555 6.56586 48.1669 5.25081C46.6989 5.40372 45.4604 6.01537 44.6193 7.33042ZM96.7166 30.8331C95.3098 34.2889 94.1171 37.7906 93.429 43.0355C93.429 43.0355 93.2761 44.06 92.4351 43.7236C91.5941 43.4178 90.2178 42.0416 89.912 40.0996C89.6062 37.5612 90.7378 33.2797 93.0467 28.3559C92.3739 27.2855 91.8999 25.6952 92.2822 23.4627C92.2822 23.4627 92.8938 19.3341 97.0225 15.603C97.0225 15.603 97.5118 15.1901 97.787 15.3277C98.1234 15.4807 97.9858 16.7957 97.7106 17.4685C97.4659 18.1108 95.631 21.2913 95.631 21.2913C95.631 21.2913 94.4841 23.4627 94.8052 25.16C96.9766 21.8265 101.916 15.0678 104.974 17.2086C106.916 18.5848 106.916 23.0192 105.463 25.5882C104.316 27.6219 101.075 31.827 96.7472 30.8484M103.108 20.4503C101.977 21.6736 99.9584 23.9979 98.3681 27.1479C100.05 26.9644 101.686 26.0316 102.191 25.5576C103.001 24.8389 104.867 22.8969 104.576 20.328C104.576 20.328 104.393 18.9824 103.108 20.4503ZM34.6036 32.6374C29.1905 34.2889 24.0832 33.5243 21.3002 32.7904C21.2237 33.9219 21.1014 34.3959 20.9179 34.5794C20.7038 34.8241 18.93 35.8333 17.9514 34.3959C17.5232 33.7078 17.3092 32.4692 17.1868 31.3377C10.9174 28.4935 8.01208 24.3037 7.92033 24.1508C7.76742 23.9979 6.34534 22.5146 7.76742 20.6797C9.09776 19.0282 13.5016 17.3615 17.4468 16.704C17.5997 13.3399 17.9667 10.7404 18.4407 9.59353C19.0065 8.21731 19.7252 9.44061 20.3674 10.3581C20.8873 11.0462 21.2084 13.9974 21.239 16.3523C23.8079 16.2299 25.3677 16.4134 28.2271 16.9639C31.9888 17.6061 34.4965 19.5328 34.2977 21.7042C34.1142 23.845 32.157 24.7319 31.3924 24.793C30.6278 24.8542 29.4045 24.2884 29.4045 24.2884C28.5482 23.8908 29.3281 23.5239 30.322 23.0957C31.423 22.5605 31.1783 22.0253 31.1783 22.0253C30.7808 20.802 25.9028 19.9916 21.0555 19.9916C21.0555 22.6675 21.1626 27.102 21.239 29.6862C24.6337 30.3285 27.172 30.1908 27.172 30.1908C27.172 30.1908 39.5579 29.8391 39.9096 21.9336C40.2919 14.0127 27.5237 6.42824 18.1196 4.0428C8.73077 1.58091 3.40942 3.32411 2.95068 3.55348C2.44607 3.79814 2.9048 3.88989 2.9048 3.88989C2.9048 3.88989 3.40942 3.96634 4.32689 4.27217C5.24437 4.57799 4.51039 5.03673 4.51039 5.03673C2.9048 5.58722 1.11573 5.2661 0.764029 4.53212C0.41233 3.81343 0.993397 3.15591 1.6815 2.19256C2.32374 1.19863 3.05772 1.22921 3.05772 1.22921C14.6791 -2.82297 28.8693 4.44037 28.8693 4.44037C42.1422 11.1379 44.4053 19.0129 44.1606 22.0712C43.9465 25.0836 42.7844 30.1756 34.6036 32.6527M9.06718 21.7042C7.75213 22.3159 8.66961 23.2945 8.66961 23.2945C11.1468 25.9399 14.1745 27.6066 17.0798 28.6464C17.4162 24.0591 17.3856 22.4229 17.3856 20.1139C12.89 20.4197 10.2905 21.1537 9.06718 21.7042Z" fill="white"/>
</svg>
