<svg width="16" height="17" viewBox="0 0 16 17" fill="none" xmlns="http://www.w3.org/2000/svg">
<path d="M13.0004 6.5C13.6096 6.50002 14.2043 6.3146 14.7055 5.9684C15.2067 5.6222 15.5907 5.13162 15.8063 4.56191C16.0219 3.99219 16.059 3.37034 15.9126 2.77904C15.7662 2.18774 15.4433 1.65501 14.9868 1.2517C14.5302 0.848394 13.9618 0.593616 13.3569 0.521248C12.7521 0.448881 12.1395 0.562353 11.6008 0.846575C11.062 1.1308 10.6225 1.5723 10.3407 2.11238C10.059 2.65245 9.94829 3.2655 10.0234 3.87L5.08342 6.34C4.65965 5.93136 4.12501 5.65642 3.54611 5.54945C2.96721 5.44247 2.36962 5.50819 1.8278 5.7384C1.28598 5.96862 0.823865 6.35317 0.499025 6.84414C0.174185 7.33511 0.000976562 7.9108 0.000976562 8.4995C0.000976563 9.08821 0.174185 9.6639 0.499025 10.1549C0.823865 10.6458 1.28598 11.0304 1.8278 11.2606C2.36962 11.4908 2.96721 11.5565 3.54611 11.4496C4.12501 11.3426 4.65965 11.0676 5.08342 10.659L10.0234 13.129C9.93591 13.8312 10.0995 14.5418 10.4852 15.1351C10.8709 15.7284 11.454 16.1663 12.1313 16.3713C12.8086 16.5763 13.5366 16.5353 14.1866 16.2555C14.8366 15.9757 15.3668 15.4751 15.6834 14.8422C16 14.2093 16.0827 13.4849 15.9169 12.7969C15.751 12.1089 15.3473 11.5017 14.7771 11.0826C14.2069 10.6635 13.5069 10.4595 12.8007 10.5066C12.0946 10.5537 11.4279 10.8489 10.9184 11.34L5.97842 8.87C6.00868 8.62426 6.00868 8.37574 5.97842 8.13L10.9184 5.66C11.4564 6.18 12.1904 6.5 13.0004 6.5Z" fill="#9CA3AF"/>
</svg>
