<svg width="16" height="16" viewBox="0 0 16 16" fill="none" xmlns="http://www.w3.org/2000/svg">
<path d="M8.79967 2.3999C8.5875 2.3999 8.38402 2.48419 8.23399 2.63422C8.08396 2.78425 7.99967 2.98773 7.99967 3.1999C7.99967 3.41208 8.08396 3.61556 8.23399 3.76559C8.38402 3.91562 8.5875 3.9999 8.79967 3.9999H10.8685L5.83407 9.0343C5.75767 9.1081 5.69672 9.19638 5.65479 9.29398C5.61287 9.39158 5.5908 9.49656 5.58987 9.60278C5.58895 9.709 5.60919 9.81435 5.64942 9.91266C5.68964 10.011 5.74904 10.1003 5.82416 10.1754C5.89927 10.2505 5.98859 10.3099 6.08691 10.3502C6.18523 10.3904 6.29057 10.4106 6.3968 10.4097C6.50302 10.4088 6.60799 10.3867 6.7056 10.3448C6.8032 10.3029 6.89148 10.2419 6.96527 10.1655L11.9997 5.1311V7.1999C11.9997 7.41208 12.084 7.61556 12.234 7.76559C12.384 7.91562 12.5875 7.9999 12.7997 7.9999C13.0118 7.9999 13.2153 7.91562 13.3654 7.76559C13.5154 7.61556 13.5997 7.41208 13.5997 7.1999V3.1999C13.5997 2.98773 13.5154 2.78425 13.3654 2.63422C13.2153 2.48419 13.0118 2.3999 12.7997 2.3999H8.79967Z" fill="#9CA3AF"/>
<path d="M4.00039 4C3.57604 4 3.16908 4.16857 2.86902 4.46863C2.56896 4.76869 2.40039 5.17565 2.40039 5.6V12C2.40039 12.4243 2.56896 12.8313 2.86902 13.1314C3.16908 13.4314 3.57604 13.6 4.00039 13.6H10.4004C10.8247 13.6 11.2317 13.4314 11.5318 13.1314C11.8318 12.8313 12.0004 12.4243 12.0004 12V9.6C12.0004 9.38783 11.9161 9.18434 11.7661 9.03431C11.616 8.88429 11.4126 8.8 11.2004 8.8C10.9882 8.8 10.7847 8.88429 10.6347 9.03431C10.4847 9.18434 10.4004 9.38783 10.4004 9.6V12H4.00039V5.6H6.40039C6.61256 5.6 6.81605 5.51571 6.96608 5.36569C7.11611 5.21566 7.20039 5.01217 7.20039 4.8C7.20039 4.58783 7.11611 4.38434 6.96608 4.23431C6.81605 4.08429 6.61256 4 6.40039 4H4.00039Z" fill="#9CA3AF"/>
</svg>
