<svg width="112" height="32" viewBox="0 0 112 32" fill="none" xmlns="http://www.w3.org/2000/svg">
<path fill-rule="evenodd" clip-rule="evenodd" d="M92.3302 29.9455L88.1839 25.2884L84.0677 29.9455H75.4145L83.8774 20.441L75.4145 10.9366H84.3381L88.5244 15.5536L92.5606 10.9366H101.174L92.7508 20.401L101.294 29.9455H92.3302ZM58.7993 29.9455V0H75.4145V6.68014H65.84V10.9366H75.4145V17.3564H65.84V23.2453H75.4145V29.9455H58.7993Z" fill="#FF6600"/>
<path fill-rule="evenodd" clip-rule="evenodd" d="M51.7886 0V12.2586H51.7085C50.2671 10.6174 48.1506 9.73088 45.9698 9.85497C41.5824 9.89352 37.769 12.8768 36.6757 17.126C35.2836 12.5591 31.6681 9.76483 26.3901 9.76483C22.0735 9.76483 18.6684 11.6978 16.8856 14.8626V10.9366H7.95208V6.67013H17.6869V0H0V29.9455H7.95208V17.3564H15.8741C15.6269 18.3385 15.5057 19.3482 15.5136 20.3609C15.5136 26.6104 20.2808 30.9871 26.3801 30.9871C31.4978 30.9871 34.873 28.5834 36.6557 24.1967H29.8453C29.1535 25.4271 27.7777 26.107 26.3801 25.9093C24.1608 25.8605 22.3843 24.0529 22.374 21.8332H36.2751C36.876 26.8408 40.7419 31.0672 46.0399 31.0672C48.3097 31.0744 50.433 29.9469 51.6985 28.0626H51.7786V29.9455H58.7893V0H51.7886ZM22.6143 17.4465C22.9468 15.6313 24.5247 14.3101 26.37 14.3017C28.2597 14.2062 29.9083 15.5721 30.1658 17.4465H22.6143ZM47.5222 25.3886C44.9382 25.3886 43.3358 22.9849 43.3358 20.4611C43.3358 17.777 44.7379 15.1931 47.5222 15.1931C50.3064 15.1931 51.5282 17.777 51.5282 20.4611C51.5282 23.1451 50.3565 25.3886 47.5322 25.3886H47.5222Z" fill="#4D148C"/>
<path fill-rule="evenodd" clip-rule="evenodd" d="M111.319 26.3701C111.275 24.7661 109.947 23.4971 108.343 23.5262C106.738 23.5553 105.457 24.8717 105.471 26.4762C105.486 28.0807 106.79 29.374 108.395 29.3746C109.19 29.3923 109.956 29.0786 110.511 28.5088C111.065 27.939 111.358 27.1643 111.319 26.3701ZM107.633 26.5203V28.5233H107.002V24.1567H108.575C109.496 24.1567 109.917 24.5573 109.917 25.3485C109.933 25.8006 109.612 26.1948 109.166 26.2699C109.526 26.33 109.667 26.6505 109.747 27.2714C109.774 27.6868 109.865 28.0955 110.017 28.4833H109.266C109.143 28.0014 109.046 27.5133 108.975 27.021C108.91 26.6823 108.584 26.4592 108.244 26.5203H107.633ZM108.425 25.9594C109.036 25.9594 109.216 25.6289 109.216 25.3485C109.216 25.0681 109.046 24.7376 108.425 24.7376H107.633V25.9694H108.425V25.9594ZM104.789 26.36C104.773 24.8942 105.643 23.5636 106.993 22.9913C108.343 22.4191 109.904 22.7184 110.947 23.7492C111.989 24.78 112.306 26.3382 111.749 27.6941C111.191 29.0501 109.871 29.9354 108.405 29.9355C107.446 29.9573 106.52 29.5889 105.838 28.9148C105.157 28.2407 104.778 27.3187 104.789 26.36Z" fill="#FF6600"/>
</svg>
