<svg width="87" height="34" viewBox="0 0 87 34" fill="none" xmlns="http://www.w3.org/2000/svg">
<path d="M7.17241 0.465341H0.947266V6.69049H7.17241V0.465341Z" fill="#00C7FD"/>
<path d="M7.01733 32.8981V10.4787H1.12449V32.8981H7.01733ZM46.1848 33.1197V27.6256C45.3208 27.6256 44.5897 27.5813 44.058 27.4927C43.4377 27.4041 42.9725 27.1825 42.6624 26.8724C42.3522 26.5622 42.1528 26.1191 42.0421 25.5432C41.9534 24.9893 41.9091 24.2582 41.9091 23.3721V15.5298H46.1848V10.4787H41.9091V1.7281H35.9941V23.4164C35.9941 25.2552 36.1492 26.8059 36.4594 28.0465C36.7695 29.2649 37.3012 30.2619 38.0323 31.0151C38.7633 31.7683 39.7381 32.3 40.9122 32.6323C42.1085 32.9646 43.615 33.1197 45.4094 33.1197H46.1848ZM80.0354 32.8981V0.00012207H74.1204V32.8981H80.0354ZM30.3007 12.6719C28.6613 10.8997 26.3574 10.0135 23.4331 10.0135C22.0153 10.0135 20.7304 10.3015 19.5562 10.8775C18.4042 11.4535 17.4073 12.251 16.632 13.2701L16.2997 13.691V10.4787H10.4733V32.8981H16.344V20.9574V21.7771C16.344 21.6441 16.344 21.5112 16.344 21.3783C16.4104 19.2737 16.92 17.723 17.8947 16.726C18.9359 15.6627 20.1987 15.131 21.6387 15.131C23.3445 15.131 24.6515 15.6627 25.5155 16.6817C26.3574 17.7008 26.8004 19.1408 26.8004 20.9795V32.876H32.7597V20.1598C32.7819 16.9697 31.9401 14.4442 30.3007 12.6719ZM71.0632 21.6441C71.0632 20.0269 70.7752 18.5205 70.2213 17.1027C69.6454 15.707 68.8478 14.4664 67.8509 13.403C66.8319 12.3396 65.6134 11.52 64.1956 10.9218C62.7778 10.3237 61.2049 10.0357 59.499 10.0357C57.8818 10.0357 56.3532 10.3458 54.9354 10.944C53.5176 11.5643 52.277 12.384 51.2358 13.4252C50.1946 14.4664 49.3527 15.707 48.7546 17.1248C48.1343 18.5426 47.8463 20.0712 47.8463 21.6884C47.8463 23.3056 48.1343 24.8342 48.7103 26.2521C49.2863 27.6699 50.1059 28.9105 51.125 29.9517C52.1441 30.9929 53.4068 31.8348 54.869 32.4329C56.3311 33.0532 57.9483 33.3634 59.6763 33.3634C64.683 33.3634 67.7845 31.0815 69.6454 28.9548L65.3919 25.7204C64.5057 26.7838 62.379 28.2237 59.7206 28.2237C58.0591 28.2237 56.6855 27.8471 55.6443 27.0718C54.6031 26.3185 53.8942 25.2552 53.5176 23.9481L53.4511 23.7487H71.0632V21.6441ZM53.4954 19.5839C53.4954 17.9445 55.3785 15.0867 59.4326 15.0645C63.4867 15.0645 65.3919 17.9223 65.3919 19.5617L53.4954 19.5839Z" fill="#0068B5"/>
<path d="M86.77 29.9738C86.6593 29.708 86.5042 29.4865 86.3048 29.2871C86.1054 29.0877 85.8839 28.9326 85.618 28.8219C85.3522 28.7111 85.0642 28.6446 84.7762 28.6446C84.4661 28.6446 84.2002 28.7111 83.9344 28.8219C83.6685 28.9326 83.447 29.0877 83.2476 29.2871C83.0482 29.4865 82.8932 29.708 82.7824 29.9738C82.6716 30.2397 82.6052 30.5277 82.6052 30.8157C82.6052 31.1258 82.6716 31.3917 82.7824 31.6575C82.8932 31.9234 83.0482 32.1449 83.2476 32.3443C83.447 32.5437 83.6685 32.6987 83.9344 32.8095C84.2002 32.9203 84.4882 32.9867 84.7762 32.9867C85.0864 32.9867 85.3522 32.9203 85.618 32.8095C85.8839 32.6987 86.1054 32.5437 86.3048 32.3443C86.5042 32.1449 86.6593 31.9234 86.77 31.6575C86.8808 31.3917 86.9473 31.1037 86.9473 30.8157C86.9473 30.5277 86.8808 30.2397 86.77 29.9738ZM86.4156 31.5246C86.327 31.7461 86.194 31.9455 86.039 32.1006C85.8839 32.2557 85.6845 32.3886 85.463 32.4772C85.2414 32.5658 85.0199 32.6101 84.7541 32.6101C84.5104 32.6101 84.2667 32.5658 84.0451 32.4772C83.8236 32.3886 83.6242 32.2557 83.4692 32.1006C83.3141 31.9455 83.1812 31.7461 83.0925 31.5246C83.0039 31.3031 82.9596 31.0815 82.9596 30.8157C82.9596 30.572 83.0039 30.3283 83.0925 30.1068C83.1812 29.8852 83.3141 29.6859 83.4692 29.5308C83.6242 29.3757 83.8236 29.2428 84.0451 29.1542C84.2667 29.0656 84.4882 29.0212 84.7541 29.0212C84.9977 29.0212 85.2414 29.0656 85.463 29.1542C85.6845 29.2428 85.8839 29.3757 86.039 29.5308C86.194 29.6859 86.327 29.8852 86.4156 30.1068C86.5042 30.3283 86.5485 30.5498 86.5485 30.8157C86.5707 31.0815 86.5042 31.3031 86.4156 31.5246ZM85.175 30.9929C85.3522 30.9708 85.4851 30.9043 85.5959 30.7935C85.7067 30.6828 85.7731 30.5277 85.7731 30.3062C85.7731 30.0625 85.7067 29.8852 85.5516 29.7523C85.4187 29.6194 85.175 29.5529 84.887 29.5529H83.9122V32.0563H84.3774V31.0372H84.7098L85.3301 32.0563H85.8174L85.175 30.9929ZM84.9313 30.6385C84.8648 30.6385 84.7984 30.6385 84.7098 30.6385H84.3774V29.9295H84.7098C84.7762 29.9295 84.8427 29.9295 84.9313 29.9295C84.9977 29.9295 85.0642 29.9517 85.1307 29.9738C85.1971 29.996 85.2414 30.0403 85.2636 30.0846C85.2857 30.1289 85.3079 30.1954 85.3079 30.284C85.3079 30.3726 85.2857 30.4391 85.2636 30.4834C85.2193 30.5277 85.175 30.572 85.1307 30.5941C85.0642 30.6163 84.9977 30.6385 84.9313 30.6385Z" fill="#0068B5"/>
</svg>
