<svg width="32" height="32" viewBox="0 0 32 32" fill="none" xmlns="http://www.w3.org/2000/svg">
<path d="M24.5189 12.9427C24.4448 13.4532 24.1082 14.1467 23.7221 14.7496C23.2349 15.5103 22.4617 16.0432 21.5769 16.2282L17.6792 17.0432C17.0528 17.1742 16.4847 17.5021 16.0582 17.9789L13.5025 20.8355C13.0222 21.3724 12.6865 21.2444 12.6865 20.5243C12.6807 20.551 11.4182 23.807 14.7641 25.737C16.0497 26.4785 17.9004 26.2121 19.186 25.4706L25.9978 21.5414C28.5453 20.072 30.344 17.5862 30.9419 14.7087C30.9655 14.5949 30.9838 14.4807 31.0035 14.3665L24.5189 12.9427Z" fill="url(#paint0_linear_1976_2186)"/>
<path d="M22.7528 9.01798C24.0384 9.75953 24.5637 10.8635 24.5637 12.3466C24.5637 12.5479 24.5479 12.7469 24.5194 12.9427L27.2641 14.1218L31.004 14.3665C31.4829 11.595 30.5444 8.74226 28.862 6.47469C27.5959 4.76825 25.9667 3.28738 24.0081 2.15762C22.417 1.2399 20.7636 0.635249 19.1025 0.303467L17.2361 2.72047L16.6465 5.49584L22.7528 9.01798Z" fill="url(#paint1_linear_1976_2186)"/>
<path d="M0.783353 11.0518C0.782654 11.054 0.784588 11.0546 0.785316 11.0524C0.929339 10.6205 1.10993 10.1385 1.33539 9.62369C2.5131 6.9343 4.78262 5.14062 7.57467 4.22608C10.3667 3.31156 13.4153 3.63212 15.9599 5.09988L16.6463 5.49578L19.1023 0.303412C11.2907 -1.25676 3.30703 3.33253 0.793284 11.0217C0.792083 11.0254 0.787713 11.0382 0.783353 11.0518Z" fill="url(#paint2_linear_1976_2186)"/>
<path d="M18.9201 25.4705C17.6345 26.2121 16.0506 26.2121 14.765 25.4705C14.5904 25.3699 14.4259 25.2567 14.2703 25.1341L12.0093 26.6886L10.0605 29.8377C12.2236 31.6378 15.0324 32.2165 17.8392 31.8946C19.9515 31.6524 22.0498 30.9833 24.0084 29.8536C25.5995 28.9358 26.9503 27.8076 28.0685 26.5363L26.9065 23.7129L25.0265 21.9484L18.9201 25.4705Z" fill="url(#paint3_linear_1976_2186)"/>
<path d="M14.2703 25.1341C13.2798 24.3539 12.6874 23.1572 12.6874 21.8754V21.7476V11.0724C12.6874 10.4687 12.8653 10.3661 13.3886 10.668C12.5826 10.203 10.7205 8.60701 8.42142 9.93314C7.13582 10.6747 6.07715 12.3116 6.07715 13.7946V21.6529C6.07715 24.5917 7.59931 27.6573 9.79472 29.6133C9.88156 29.6906 9.97147 29.7636 10.0606 29.8377L14.2703 25.1341Z" fill="url(#paint4_linear_1976_2186)"/>
<path d="M27.9106 5.31242C27.9091 5.31072 27.9076 5.31209 27.9091 5.3138C28.2116 5.65441 28.539 6.05162 28.8726 6.50411C30.615 8.86777 31.2661 11.8614 30.6628 14.7344C30.0595 17.6074 28.2574 20.0847 25.7127 21.5524L25.0264 21.9484L28.0684 26.5363C33.3266 20.5577 33.3402 11.3556 27.9318 5.33607C27.9292 5.33319 27.9202 5.32299 27.9106 5.31242Z" fill="url(#paint5_linear_1976_2186)"/>
<path d="M6.34355 13.7946C6.34354 12.3115 7.13551 10.9411 8.42113 10.1995C8.59564 10.0989 8.77601 10.0131 8.96002 9.93976L8.74304 7.20627L7.21861 4.07886C4.57671 5.05029 2.4397 7.0579 1.31528 9.64732C0.469097 11.596 9.792e-06 13.746 0 16.0055C0 17.8409 0.302549 19.5738 0.845532 21.1769L3.87391 21.5833L6.34355 20.8389V13.7946Z" fill="url(#paint6_linear_1976_2186)"/>
<path d="M8.96016 9.93975C10.1317 9.47288 11.4653 9.55864 12.5764 10.1995L12.6872 10.2634L21.5826 15.3943C22.2066 15.7543 22.1499 16.1084 21.4446 16.2559L21.9578 16.1486C22.633 16.0074 23.2499 15.6623 23.7217 15.1595C24.5328 14.2949 24.8306 13.2518 24.8306 12.3465C24.8306 10.8634 24.0386 9.49299 22.753 8.75144L15.9411 4.82233C13.3936 3.35292 10.3395 3.03959 7.54622 3.96107C7.43572 3.99752 7.32756 4.03885 7.21875 4.07886L8.96016 9.93975Z" fill="url(#paint7_linear_1976_2186)"/>
<path d="M19.3224 31.6523C19.3246 31.6518 19.3242 31.6498 19.3219 31.6503C18.8755 31.7417 18.3674 31.8264 17.8084 31.8888C14.8882 32.2145 11.9677 31.2809 9.77888 29.3225C7.59011 27.3641 6.34372 24.5662 6.34372 21.6307L6.34371 20.8389L0.845703 21.1769C3.39905 28.7156 11.3691 33.3285 19.2913 31.6588C19.2951 31.658 19.3084 31.6553 19.3224 31.6523Z" fill="url(#paint8_linear_1976_2186)"/>
<defs>
<linearGradient id="paint0_linear_1976_2186" x1="20.0595" y1="23.77" x2="23.207" y2="12.8069" gradientUnits="userSpaceOnUse">
<stop stop-color="#1724C9"/>
<stop offset="1" stop-color="#1C64F2"/>
</linearGradient>
<linearGradient id="paint1_linear_1976_2186" x1="27.3093" y1="10.4004" x2="19.0297" y2="2.14987" gradientUnits="userSpaceOnUse">
<stop stop-color="#1C64F2"/>
<stop offset="1" stop-color="#0092FF"/>
</linearGradient>
<linearGradient id="paint2_linear_1976_2186" x1="16.1642" y1="5.02115" x2="3.67407" y2="5.8104" gradientUnits="userSpaceOnUse">
<stop stop-color="#0092FF"/>
<stop offset="1" stop-color="#45B2FF"/>
</linearGradient>
<linearGradient id="paint3_linear_1976_2186" x1="15.32" y1="28.6627" x2="26.5369" y2="25.636" gradientUnits="userSpaceOnUse">
<stop stop-color="#1C64F2"/>
<stop offset="1" stop-color="#0092FF"/>
</linearGradient>
<linearGradient id="paint4_linear_1976_2186" x1="7.26906" y1="15.6827" x2="15.2327" y2="23.9347" gradientUnits="userSpaceOnUse">
<stop stop-color="#1724C9"/>
<stop offset="1" stop-color="#1C64F2"/>
</linearGradient>
<linearGradient id="paint5_linear_1976_2186" x1="25.4506" y1="21.6357" x2="31.0071" y2="10.4346" gradientUnits="userSpaceOnUse">
<stop stop-color="#0092FF"/>
<stop offset="1" stop-color="#45B2FF"/>
</linearGradient>
<linearGradient id="paint6_linear_1976_2186" x1="5.36387" y1="9.13092" x2="2.39054" y2="20.3065" gradientUnits="userSpaceOnUse">
<stop stop-color="#1C64F2"/>
<stop offset="1" stop-color="#0092FF"/>
</linearGradient>
<linearGradient id="paint7_linear_1976_2186" x1="20.5432" y1="8.59936" x2="9.6778" y2="11.3046" gradientUnits="userSpaceOnUse">
<stop stop-color="#1724C9"/>
<stop offset="1" stop-color="#1C64F2"/>
</linearGradient>
<linearGradient id="paint8_linear_1976_2186" x1="6.40691" y1="21.3566" x2="13.3327" y2="31.7745" gradientUnits="userSpaceOnUse">
<stop stop-color="#0092FF"/>
<stop offset="1" stop-color="#45B2FF"/>
</linearGradient>
</defs>
</svg>
