<svg width="88" height="49" viewBox="0 0 88 49" fill="none" xmlns="http://www.w3.org/2000/svg">
<g id="Brand logos/Intel" clip-path="url(#clip0_516_1166)">
<g id="Vector">
<path d="M8.17216 7.80079H1.94702V14.0259H8.17216V7.80079Z" fill="#00C7FD"/>
<path d="M8.01709 40.2336V17.8142H2.12425V40.2336H8.01709ZM47.1845 40.4551V34.961C46.3205 34.961 45.5895 34.9167 45.0578 34.8281C44.4375 34.7395 43.9723 34.518 43.6621 34.2078C43.352 33.8977 43.1526 33.4546 43.0418 32.8786C42.9532 32.3248 42.9089 31.5937 42.9089 30.7076V22.8652H47.1845V17.8142H42.9089V9.06355H36.9939V30.7519C36.9939 32.5906 37.149 34.1414 37.4591 35.382C37.7693 36.6004 38.301 37.5973 39.032 38.3505C39.7631 39.1037 40.7379 39.6354 41.912 39.9677C43.1083 40.3 44.6147 40.4551 46.4092 40.4551H47.1845ZM81.0351 40.2336V7.33557H75.1201V40.2336H81.0351ZM31.3004 20.0074C29.6611 18.2351 27.3571 17.349 24.4329 17.349C23.015 17.349 21.7301 17.637 20.556 18.213C19.404 18.789 18.4071 19.5865 17.6317 20.6055L17.2994 21.0265V17.8142H11.473V40.2336H17.3437V28.2928V29.1125C17.3437 28.9796 17.3437 28.8467 17.3437 28.7137C17.4102 26.6092 17.9197 25.0584 18.8945 24.0615C19.9357 22.9981 21.1984 22.4664 22.6384 22.4664C24.3442 22.4664 25.6513 22.9981 26.5153 24.0172C27.3571 25.0363 27.8002 26.4762 27.8002 28.315V40.2114H33.7595V27.4953C33.7816 24.3052 32.9398 21.7797 31.3004 20.0074ZM72.0629 28.9796C72.0629 27.3624 71.7749 25.8559 71.2211 24.4381C70.6451 23.0424 69.8476 21.8018 68.8507 20.7385C67.8316 19.6751 66.6132 18.8554 65.1953 18.2573C63.7775 17.6591 62.2046 17.3711 60.4988 17.3711C58.8816 17.3711 57.353 17.6813 55.9352 18.2794C54.5173 18.8997 53.2767 19.7194 52.2355 20.7606C51.1943 21.8018 50.3525 23.0424 49.7543 24.4603C49.134 25.8781 48.846 27.4067 48.846 29.0239C48.846 30.6411 49.134 32.1697 49.71 33.5875C50.286 35.0053 51.1057 36.2459 52.1248 37.2872C53.1438 38.3284 54.4066 39.1702 55.8687 39.7684C57.3308 40.3887 58.9481 40.6988 60.676 40.6988C65.6827 40.6988 68.7842 38.417 70.6451 36.2902L66.3916 33.0558C65.5055 34.1192 63.3788 35.5592 60.7203 35.5592C59.0588 35.5592 57.6853 35.1826 56.6441 34.4072C55.6029 33.654 54.894 32.5906 54.5173 31.2835L54.4509 31.0842H72.0629V28.9796ZM54.4952 26.9193C54.4952 25.2799 56.3782 22.4221 60.4323 22.4C64.4864 22.4 66.3916 25.2578 66.3916 26.8971L54.4952 26.9193Z" fill="#0068B5"/>
<path d="M87.7698 37.3093C87.659 37.0435 87.5039 36.8219 87.3046 36.6225C87.1052 36.4232 86.8836 36.2681 86.6178 36.1573C86.352 36.0465 86.064 35.9801 85.776 35.9801C85.4658 35.9801 85.2 36.0465 84.9341 36.1573C84.6683 36.2681 84.4468 36.4232 84.2474 36.6225C84.048 36.8219 83.8929 37.0435 83.7822 37.3093C83.6714 37.5751 83.6049 37.8631 83.6049 38.1511C83.6049 38.4613 83.6714 38.7271 83.7822 38.993C83.8929 39.2588 84.048 39.4804 84.2474 39.6797C84.4468 39.8791 84.6683 40.0342 84.9341 40.145C85.2 40.2557 85.488 40.3222 85.776 40.3222C86.0861 40.3222 86.352 40.2557 86.6178 40.145C86.8836 40.0342 87.1052 39.8791 87.3046 39.6797C87.5039 39.4804 87.659 39.2588 87.7698 38.993C87.8806 38.7271 87.947 38.4391 87.947 38.1511C87.947 37.8631 87.8806 37.5751 87.7698 37.3093ZM87.4153 38.86C87.3267 39.0816 87.1938 39.281 87.0387 39.436C86.8836 39.5911 86.6843 39.724 86.4627 39.8126C86.2412 39.9013 86.0197 39.9456 85.7538 39.9456C85.5101 39.9456 85.2664 39.9013 85.0449 39.8126C84.8234 39.724 84.624 39.5911 84.4689 39.436C84.3138 39.281 84.1809 39.0816 84.0923 38.86C84.0037 38.6385 83.9594 38.417 83.9594 38.1511C83.9594 37.9074 84.0037 37.6638 84.0923 37.4422C84.1809 37.2207 84.3138 37.0213 84.4689 36.8662C84.624 36.7112 84.8234 36.5782 85.0449 36.4896C85.2664 36.401 85.488 36.3567 85.7538 36.3567C85.9975 36.3567 86.2412 36.401 86.4627 36.4896C86.6843 36.5782 86.8836 36.7112 87.0387 36.8662C87.1938 37.0213 87.3267 37.2207 87.4153 37.4422C87.5039 37.6638 87.5483 37.8853 87.5483 38.1511C87.5704 38.417 87.5039 38.6385 87.4153 38.86ZM86.1747 38.3284C86.352 38.3062 86.4849 38.2397 86.5956 38.129C86.7064 38.0182 86.7729 37.8631 86.7729 37.6416C86.7729 37.3979 86.7064 37.2207 86.5513 37.0878C86.4184 36.9548 86.1747 36.8884 85.8867 36.8884H84.912V39.3917H85.3772V38.3727H85.7095L86.3298 39.3917H86.8172L86.1747 38.3284ZM85.931 37.9739C85.8646 37.9739 85.7981 37.9739 85.7095 37.9739H85.3772V37.265H85.7095C85.776 37.265 85.8424 37.265 85.931 37.265C85.9975 37.265 86.064 37.2871 86.1304 37.3093C86.1969 37.3315 86.2412 37.3758 86.2634 37.4201C86.2855 37.4644 86.3077 37.5308 86.3077 37.6194C86.3077 37.7081 86.2855 37.7745 86.2634 37.8188C86.219 37.8631 86.1747 37.9074 86.1304 37.9296C86.064 37.9517 85.9975 37.9739 85.931 37.9739Z" fill="#0068B5"/>
</g>
</g>
<defs>
<clipPath id="clip0_516_1166">
<rect width="87" height="48" fill="white" transform="translate(0.5 0.335449)"/>
</clipPath>
</defs>
</svg>
