<svg width="18" height="18" viewBox="0 0 18 18" fill="none" xmlns="http://www.w3.org/2000/svg">
<path d="M8.71875 0.335449C3.90234 0.335449 0 4.27295 0 9.0542C0 13.8706 3.90234 17.7729 8.71875 17.7729C13.5 17.7729 17.4375 13.8706 17.4375 9.0542C17.4375 4.27295 13.5 0.335449 8.71875 0.335449ZM14.4492 4.37842C15.5039 5.64404 16.1367 7.26123 16.1367 9.01904C15.8906 8.94873 13.4297 8.45654 10.9688 8.77295C10.7578 8.28076 10.582 7.85889 10.3008 7.29639C13.0781 6.17139 14.3086 4.58936 14.4492 4.37842ZM13.6406 3.49951C13.5 3.71045 12.375 5.22217 9.73828 6.20654C8.50781 3.95654 7.17188 2.12842 6.96094 1.84717C9.31641 1.28467 11.8125 1.88232 13.6406 3.49951ZM5.51953 2.33936C5.73047 2.62061 7.06641 4.44873 8.29688 6.66357C4.81641 7.57764 1.75781 7.57764 1.40625 7.54248C1.89844 5.25732 3.44531 3.32373 5.51953 2.33936ZM1.26562 9.08936C1.26562 9.01904 1.26562 8.94873 1.26562 8.84326C1.58203 8.87842 5.20312 8.91357 8.89453 7.78857C9.14062 8.21045 9.31641 8.63232 9.52734 9.0542C6.82031 9.82764 4.35938 12.0073 3.16406 14.0464C1.96875 12.7456 1.26562 10.9878 1.26562 9.08936ZM4.11328 14.9604C4.92188 13.3784 7.03125 11.3042 10.0195 10.2847C11.0742 12.9917 11.4961 15.2769 11.6016 15.9448C9.21094 16.9644 6.32812 16.6831 4.11328 14.9604ZM12.8672 15.2417C12.7969 14.8198 12.375 12.6401 11.4258 9.93311C13.7461 9.58154 15.7852 10.1792 16.0664 10.2495C15.7148 12.3237 14.5195 14.1167 12.8672 15.2417Z" fill="#9CA3AF"/>
</svg>
