<svg xmlns="http://www.w3.org/2000/svg" width="33" height="34" viewBox="0 0 33 34" fill="none">
  <path d="M5.70001 8.7501C5.70001 8.5114 5.79483 8.28248 5.96362 8.1137C6.1324 7.94492 6.36132 7.8501 6.60001 7.8501H26.4C26.6387 7.8501 26.8676 7.94492 27.0364 8.1137C27.2052 8.28248 27.3 8.5114 27.3 8.7501C27.3 8.98879 27.2052 9.21771 27.0364 9.38649C26.8676 9.55528 26.6387 9.6501 26.4 9.6501H6.60001C6.36132 9.6501 6.1324 9.55528 5.96362 9.38649C5.79483 9.21771 5.70001 8.98879 5.70001 8.7501ZM5.70001 17.0001C5.70001 16.7614 5.79483 16.5325 5.96362 16.3637C6.1324 16.1949 6.36132 16.1001 6.60001 16.1001H26.4C26.6387 16.1001 26.8676 16.1949 27.0364 16.3637C27.2052 16.5325 27.3 16.7614 27.3 17.0001C27.3 17.2388 27.2052 17.4677 27.0364 17.6365C26.8676 17.8053 26.6387 17.9001 26.4 17.9001H6.60001C6.36132 17.9001 6.1324 17.8053 5.96362 17.6365C5.79483 17.4677 5.70001 17.2388 5.70001 17.0001ZM5.70001 25.2501C5.70001 25.0114 5.79483 24.7825 5.96362 24.6137C6.1324 24.4449 6.36132 24.3501 6.60001 24.3501H26.4C26.6387 24.3501 26.8676 24.4449 27.0364 24.6137C27.2052 24.7825 27.3 25.0114 27.3 25.2501C27.3 25.4888 27.2052 25.7177 27.0364 25.8865C26.8676 26.0553 26.6387 26.1501 26.4 26.1501H6.60001C6.36132 26.1501 6.1324 26.0553 5.96362 25.8865C5.79483 25.7177 5.70001 25.4888 5.70001 25.2501Z" fill="white" stroke="white" stroke-width="1.5"/>
</svg>