<svg width="17" height="11" viewBox="0 0 17 11" fill="none" xmlns="http://www.w3.org/2000/svg">
<path fill-rule="evenodd" clip-rule="evenodd" d="M10.751 1.18219C10.9385 0.99472 11.1928 0.889404 11.458 0.889404C11.7232 0.889404 11.9775 0.99472 12.165 1.18219L16.165 5.18219C16.3525 5.36972 16.4578 5.62403 16.4578 5.88919C16.4578 6.15436 16.3525 6.40866 16.165 6.59619L12.165 10.5962C11.9764 10.7783 11.7238 10.8791 11.4616 10.8769C11.1994 10.8746 10.9486 10.7694 10.7632 10.584C10.5778 10.3986 10.4726 10.1478 10.4703 9.88559C10.4681 9.62339 10.5688 9.37079 10.751 9.18219L13.044 6.88919H1.45801C1.19279 6.88919 0.938437 6.78383 0.750901 6.5963C0.563365 6.40876 0.458008 6.15441 0.458008 5.88919C0.458008 5.62397 0.563365 5.36962 0.750901 5.18208C0.938437 4.99455 1.19279 4.88919 1.45801 4.88919H13.044L10.751 2.59619C10.5635 2.40866 10.4582 2.15435 10.4582 1.88919C10.4582 1.62403 10.5635 1.36972 10.751 1.18219Z" fill="white"/>
</svg>
