<svg width="38" height="39" viewBox="0 0 38 39" fill="none" xmlns="http://www.w3.org/2000/svg">
<path d="M30.2593 19.3355C30.2593 25.5578 25.2224 30.5947 19 30.5947V19.3355H30.2593ZM19 8.07619V19.3355H7.74076C7.74076 13.1131 12.7776 8.07619 19 8.07619Z" fill="#0166B1"/>
<path d="M19 8.07619C25.2224 8.07619 30.2593 13.1131 30.2593 19.3355H19V8.07619ZM7.74076 19.3355H19V30.5947C12.7776 30.5947 7.74076 25.5578 7.74076 19.3355Z" fill="white"/>
<path d="M19 8.07619L19 8.69352C24.8674 8.69352 29.6419 13.4669 29.6419 19.3354L30.2593 19.3355C30.2593 13.1175 25.218 8.07619 19 8.07619ZM19 29.9774C13.1326 29.9774 8.35807 25.204 8.35807 19.3354L7.74076 19.3355C7.74076 25.5534 12.7821 30.5947 19 30.5947M19 0.335449C8.50688 0.335449 0 8.84233 0 19.3354C0 29.8286 8.50688 38.3354 19 38.3354C29.4931 38.3354 38 29.8286 38 19.3354C38 8.84233 29.4931 0.335449 19 0.335449ZM36.7645 19.3354C36.7645 29.146 28.8117 37.0999 19 37.0999C9.18832 37.0999 1.23554 29.146 1.23554 19.3354C1.23554 9.52489 9.18944 1.57099 19 1.57099C28.8106 1.57099 36.7645 9.52489 36.7645 19.3354Z" fill="#6F6F6F"/>
<path d="M10.8805 10.1695C11.4876 9.53435 11.8314 8.80059 11.2242 8.10008C10.8939 7.7199 10.3392 7.63677 9.87932 7.82409L9.83357 7.84183L9.84807 7.80192C9.91616 7.62126 9.95968 7.04489 9.46526 6.64697C9.22418 6.453 8.92172 6.38096 8.61591 6.41199C8.04559 6.46963 7.60697 6.85646 6.41275 8.17878C6.05226 8.5778 5.52769 9.20737 5.21296 9.61526L8.49314 12.7055C9.58021 11.5106 10.0233 11.0662 10.8805 10.1695ZM6.60026 9.41354C7.26098 8.61105 7.963 7.88284 8.28109 7.59465C8.38153 7.50377 8.49091 7.41288 8.62372 7.37741C8.83913 7.31866 9.06123 7.47051 9.11146 7.68998C9.16168 7.91055 9.02217 8.12003 8.86703 8.29294C8.5177 8.68421 7.23643 10.0154 7.23643 10.0154L6.60026 9.41354ZM7.88487 10.6239C7.88487 10.6239 9.13266 9.31378 9.54003 8.8948C9.70187 8.72855 9.80566 8.62768 9.91727 8.57337C10.0612 8.50354 10.2186 8.48913 10.3592 8.58224C10.4976 8.67423 10.5613 8.83273 10.5267 8.99013C10.4854 9.17745 10.3313 9.3559 10.2041 9.49223C10.0322 9.67512 8.55229 11.2479 8.55006 11.2501L7.88487 10.6239ZM19.375 6.48404L20.4253 4.14754L20.4922 3.94027L20.4732 4.1564L20.5837 7.27876C20.952 7.31312 21.3326 7.36411 21.7076 7.42618L21.5369 2.80194C21.0123 2.7443 20.49 2.70329 19.9677 2.68113L18.933 5.23155L18.8962 5.42109L18.8594 5.23155L17.8259 2.68113C17.3036 2.70329 16.7812 2.7443 16.2567 2.80194L16.0859 7.42618C16.4609 7.36411 16.8415 7.31423 17.2098 7.27876L17.3203 4.1564L17.3013 3.94027L17.3683 4.14754L18.4185 6.48404H19.375ZM28.0972 11.3178C28.3551 11.5926 28.7267 12.036 28.9354 12.3053L32.7792 9.88239C32.5873 9.633 32.2815 9.25393 32.0527 8.9868L29.6185 10.5851L29.4522 10.727L29.5761 10.5474L30.6509 8.41708L29.8908 7.66227L27.7446 8.72965L27.5638 8.85268L27.7077 8.68753L29.3183 6.27123C29.0348 6.03181 28.7624 5.81235 28.4153 5.54633L25.9756 9.36033C26.2847 9.59642 26.6921 9.94335 26.9521 10.1794L29.2491 8.99567L29.3964 8.88815L29.2881 9.03446L28.0972 11.3178Z" fill="#6F6F6F"/>
</svg>
