<svg width="86" height="34" viewBox="0 0 86 34" fill="none" xmlns="http://www.w3.org/2000/svg">
<path d="M6.67216 0.465219H0.447021V6.69036H6.67216V0.465219Z" fill="#00C7FD"/>
<path d="M6.51709 32.898V10.4786H0.624251V32.898H6.51709ZM45.6845 33.1195V27.6255C44.8205 27.6255 44.0895 27.5812 43.5578 27.4925C42.9375 27.4039 42.4723 27.1824 42.1621 26.8722C41.852 26.5621 41.6526 26.119 41.5418 25.543C41.4532 24.9892 41.4089 24.2581 41.4089 23.372V15.5296H45.6845V10.4786H41.4089V1.72798H35.4939V23.4163C35.4939 25.255 35.649 26.8058 35.9591 28.0464C36.2693 29.2648 36.801 30.2617 37.532 31.015C38.2631 31.7682 39.2379 32.2999 40.412 32.6322C41.6083 32.9645 43.1147 33.1195 44.9092 33.1195H45.6845ZM79.5351 32.898V0H73.6201V32.898H79.5351ZM29.8004 12.6718C28.1611 10.8995 25.8571 10.0134 22.9329 10.0134C21.515 10.0134 20.2301 10.3014 19.056 10.8774C17.904 11.4534 16.9071 12.2509 16.1317 13.27L15.7994 13.6909V10.4786H9.97304V32.898H15.8437V20.9572V21.7769C15.8437 21.644 15.8437 21.5111 15.8437 21.3782C15.9102 19.2736 16.4197 17.7228 17.3945 16.7259C18.4357 15.6626 19.6984 15.1309 21.1384 15.1309C22.8442 15.1309 24.1513 15.6626 25.0153 16.6816C25.8571 17.7007 26.3002 19.1407 26.3002 20.9794V32.8759H32.2595V20.1597C32.2816 16.9696 31.4398 14.4441 29.8004 12.6718ZM70.5629 21.644C70.5629 20.0268 70.2749 18.5204 69.7211 17.1025C69.1451 15.7069 68.3476 14.4663 67.3507 13.4029C66.3316 12.3395 65.1132 11.5198 63.6953 10.9217C62.2775 10.3236 60.7046 10.0356 58.9988 10.0356C57.3816 10.0356 55.853 10.3457 54.4352 10.9438C53.0173 11.5641 51.7767 12.3838 50.7355 13.425C49.6943 14.4663 48.8525 15.7069 48.2543 17.1247C47.634 18.5425 47.346 20.0711 47.346 21.6883C47.346 23.3055 47.634 24.8341 48.21 26.2519C48.786 27.6698 49.6057 28.9104 50.6248 29.9516C51.6438 30.9928 52.9066 31.8346 54.3687 32.4328C55.8308 33.0531 57.4481 33.3632 59.176 33.3632C64.1827 33.3632 67.2842 31.0814 69.1451 28.9547L64.8916 25.7203C64.0055 26.7836 61.8788 28.2236 59.2203 28.2236C57.5588 28.2236 56.1853 27.847 55.1441 27.0716C54.1029 26.3184 53.394 25.255 53.0173 23.948L52.9509 23.7486H70.5629V21.644ZM52.9952 19.5837C52.9952 17.9444 54.8782 15.0866 58.9323 15.0644C62.9864 15.0644 64.8916 17.9222 64.8916 19.5616L52.9952 19.5837Z" fill="#0068B5"/>
<path d="M86.2698 29.9737C86.159 29.7079 86.0039 29.4863 85.8046 29.287C85.6052 29.0876 85.3836 28.9325 85.1178 28.8217C84.852 28.711 84.564 28.6445 84.276 28.6445C83.9658 28.6445 83.7 28.711 83.4341 28.8217C83.1683 28.9325 82.9468 29.0876 82.7474 29.287C82.548 29.4863 82.3929 29.7079 82.2822 29.9737C82.1714 30.2396 82.1049 30.5276 82.1049 30.8156C82.1049 31.1257 82.1714 31.3916 82.2822 31.6574C82.3929 31.9232 82.548 32.1448 82.7474 32.3442C82.9468 32.5435 83.1683 32.6986 83.4341 32.8094C83.7 32.9202 83.988 32.9866 84.276 32.9866C84.5861 32.9866 84.852 32.9202 85.1178 32.8094C85.3836 32.6986 85.6052 32.5435 85.8046 32.3442C86.0039 32.1448 86.159 31.9232 86.2698 31.6574C86.3806 31.3916 86.447 31.1036 86.447 30.8156C86.447 30.5276 86.3806 30.2396 86.2698 29.9737ZM85.9153 31.5245C85.8267 31.746 85.6938 31.9454 85.5387 32.1005C85.3836 32.2555 85.1843 32.3885 84.9627 32.4771C84.7412 32.5657 84.5197 32.61 84.2538 32.61C84.0101 32.61 83.7664 32.5657 83.5449 32.4771C83.3234 32.3885 83.124 32.2555 82.9689 32.1005C82.8138 31.9454 82.6809 31.746 82.5923 31.5245C82.5037 31.3029 82.4594 31.0814 82.4594 30.8156C82.4594 30.5719 82.5037 30.3282 82.5923 30.1066C82.6809 29.8851 82.8138 29.6857 82.9689 29.5307C83.124 29.3756 83.3234 29.2427 83.5449 29.154C83.7664 29.0654 83.988 29.0211 84.2538 29.0211C84.4975 29.0211 84.7412 29.0654 84.9627 29.154C85.1843 29.2427 85.3836 29.3756 85.5387 29.5307C85.6938 29.6857 85.8267 29.8851 85.9153 30.1066C86.0039 30.3282 86.0483 30.5497 86.0483 30.8156C86.0704 31.0814 86.0039 31.3029 85.9153 31.5245ZM84.6747 30.9928C84.852 30.9706 84.9849 30.9042 85.0956 30.7934C85.2064 30.6826 85.2729 30.5276 85.2729 30.306C85.2729 30.0623 85.2064 29.8851 85.0513 29.7522C84.9184 29.6193 84.6747 29.5528 84.3867 29.5528H83.412V32.0562H83.8772V31.0371H84.2095L84.8298 32.0562H85.3172L84.6747 30.9928ZM84.431 30.6383C84.3646 30.6383 84.2981 30.6383 84.2095 30.6383H83.8772V29.9294H84.2095C84.276 29.9294 84.3424 29.9294 84.431 29.9294C84.4975 29.9294 84.564 29.9516 84.6304 29.9737C84.6969 29.9959 84.7412 30.0402 84.7634 30.0845C84.7855 30.1288 84.8077 30.1953 84.8077 30.2839C84.8077 30.3725 84.7855 30.439 84.7634 30.4833C84.719 30.5276 84.6747 30.5719 84.6304 30.594C84.564 30.6162 84.4975 30.6383 84.431 30.6383Z" fill="#0068B5"/>
</svg>
