<svg width="114" height="32" viewBox="0 0 114 32" fill="none" xmlns="http://www.w3.org/2000/svg">
<path d="M60.8254 8.36045C60.667 8.55211 60.5774 8.76613 60.5774 9.13826V19.3703H60.5206C60.5206 19.3703 54.9097 9.38581 54.6385 8.92424C54.4465 8.59683 54.2321 8.37163 53.9496 8.20234C53.6672 8.04502 53.3736 7.9436 52.8096 7.9436H50.9582C50.5286 7.9436 50.2581 8.08974 50.0661 8.31573C49.9077 8.50659 49.8173 8.72141 49.8173 9.09274V23.5964C49.8173 23.9685 49.9077 24.1825 50.0661 24.3742C50.2581 24.5994 50.5286 24.7455 50.9582 24.7455H52.0079C52.4367 24.7455 52.7079 24.5994 52.9 24.3742C53.0576 24.1825 53.148 23.9685 53.148 23.5964V13.1159H53.2048C53.2048 13.1159 59.0301 23.4159 59.2677 23.7992C59.5949 24.3398 60.1478 24.7455 60.9382 24.7455H62.7336C63.1624 24.7455 63.4336 24.5994 63.6256 24.3742C63.7833 24.1825 63.8737 23.9685 63.8737 23.5964V10.5126H87.4588C87.6964 10.5126 87.8764 10.4455 88.0124 10.3329C88.1588 10.1972 88.2269 10.0167 88.2269 9.74677V8.75494C88.2269 8.48423 88.1588 8.30375 88.0124 8.16879C87.8764 8.0562 87.6964 7.98832 87.4588 7.98832H61.7175C61.2887 7.98832 61.0174 8.13525 60.8254 8.36045ZM71.1223 12.2367C67.2043 12.2367 65.0026 15.2912 65.0026 18.5143C65.0026 21.9513 67.3627 24.9715 71.1447 24.9715C73.0304 24.9715 74.8818 24.2616 75.9426 23.0102C76.4059 22.4696 76.7787 21.7141 76.7787 21.2526C76.7787 21.0944 76.7443 20.9595 76.6547 20.8581C76.5643 20.7455 76.4283 20.6776 76.1915 20.6776H74.3737C74.0121 20.6776 73.7641 20.8125 73.5833 21.0833C73.0528 21.8611 72.2848 22.2667 71.1559 22.2667C69.4621 22.2667 68.3676 20.9818 68.2884 19.5732H76.1467C76.4963 19.5732 76.7443 19.4941 76.9139 19.3256C77.1059 19.1451 77.1964 18.8856 77.1964 18.4009C77.1964 16.9251 76.7331 15.3927 75.7626 14.2204C74.769 13.0369 73.256 12.2367 71.1223 12.2367ZM83.236 12.2367C80.143 12.2367 78.1108 13.7021 78.1108 16.0459C78.1108 16.8796 78.4156 17.556 78.9125 18.0854C79.4885 18.7059 80.3126 19.1339 81.5095 19.4382L84.0945 20.0914C84.8058 20.2719 85.4378 20.4859 85.4378 21.1056C85.4378 22.0639 84.4217 22.3905 83.3384 22.3905C82.8072 22.3905 82.2544 22.2891 81.8023 22.0639C81.4863 21.9058 81.2159 21.6806 81.0239 21.3763C80.8542 21.1168 80.7982 20.9251 80.5382 20.779C80.3798 20.6888 80.1878 20.6776 79.9286 20.6776H78.5285C78.2236 20.6776 78.0772 20.7678 77.9756 20.8916C77.874 21.0154 77.8396 21.1959 77.8396 21.3763C77.8396 21.8267 77.998 22.3905 78.3708 22.8976C79.2285 24.0467 81.0239 24.9715 83.3153 24.9715C85.5738 24.9715 88.7013 24.0356 88.7013 21.0154C88.7013 20.2384 88.4749 19.5732 88.0572 19.0325C87.5268 18.345 86.7707 17.8714 85.4834 17.5448L82.9208 16.8908C81.8591 16.6209 81.3623 16.4292 81.3623 15.7752C81.3623 15.1443 81.9271 14.6372 83.236 14.6372C84.0041 14.6372 84.7042 14.8065 85.1562 15.2801C85.5282 15.6745 85.461 15.8774 85.7547 16.0347C85.9347 16.1249 86.1379 16.1249 86.4547 16.1249H87.73C87.9332 16.1249 88.0804 16.0914 88.1925 15.9668C88.2837 15.8654 88.3397 15.7081 88.3397 15.4486C88.3397 14.8624 87.9556 14.1078 87.2788 13.5328C86.3755 12.755 84.953 12.2367 83.236 12.2367ZM90.2702 12.6655H89.6382C89.4013 12.6655 89.2205 12.7326 89.0853 12.8452C88.9381 12.981 88.8701 13.1614 88.8701 13.4314V14.2092C88.8701 14.4799 88.9381 14.6596 89.0853 14.7953C89.2205 14.9079 89.4013 14.9758 89.6382 14.9758H90.2702V20.5985C90.2702 22.0407 90.6655 22.9423 91.3991 23.6642C92.0768 24.3286 92.9576 24.7455 94.493 24.7455H95.4522C95.6899 24.7455 95.8699 24.6784 96.0059 24.5658C96.1523 24.4301 96.2427 24.2496 96.2427 23.9797V22.999C96.2427 22.7283 96.1523 22.5486 96.0059 22.4129C95.8699 22.3003 95.6899 22.2324 95.4522 22.2324H95.317C94.7074 22.2324 94.2897 22.0751 94.0073 21.8044C93.6689 21.4889 93.4993 21.0042 93.4993 20.3733V14.9758H95.5546C95.7915 14.9758 95.9723 14.9079 96.1075 14.7953C96.2539 14.6596 96.3219 14.4799 96.3219 14.2092V13.4314C96.3219 13.1614 96.2539 12.981 96.1075 12.8452C95.9723 12.7326 95.7915 12.6655 95.5546 12.6655H93.5105V8.99132C93.5105 8.69825 93.4201 8.48423 93.2849 8.31573C93.1152 8.1129 92.8784 7.98832 92.5288 7.98832H91.2527C90.9023 7.98832 90.6655 8.1129 90.4958 8.31573C90.3606 8.48423 90.2702 8.69825 90.2702 8.99132V12.6655ZM97.1804 23.7425C97.1804 24.0356 97.27 24.2496 97.406 24.4189C97.5748 24.6217 97.8124 24.7455 98.1621 24.7455H99.5054C99.8558 24.7455 100.093 24.6217 100.262 24.4189C100.397 24.2496 100.488 24.0356 100.488 23.7425V8.99212C100.488 8.69905 100.397 8.48503 100.262 8.31573C100.093 8.1129 99.8558 7.98832 99.5054 7.98832H98.1621C97.8124 7.98832 97.5748 8.1129 97.406 8.31573C97.27 8.48503 97.1804 8.69905 97.1804 8.99212V23.7425ZM68.3108 17.1727C68.4572 15.7863 69.5189 14.7498 71.1335 14.7498C72.7144 14.7498 73.8089 15.7863 73.9561 17.1727H68.3108ZM112.715 10.5126C112.952 10.5126 113.133 10.4455 113.268 10.3329C113.415 10.1972 113.483 10.0167 113.483 9.74677V8.69825C113.483 8.29257 113.404 8.08974 113.268 7.9436C113.144 7.80784 112.941 7.72958 112.715 7.72958C112.534 7.72958 112.354 7.75194 112.05 7.78548L103.039 8.67589C102.78 8.69825 102.656 8.7773 102.566 8.87872C102.464 8.99132 102.418 9.13826 102.418 9.34109V9.92645C102.418 10.1524 102.464 10.2539 102.543 10.3441C102.644 10.4567 102.791 10.5126 102.994 10.5126H112.715ZM107.736 12.2367C103.819 12.2367 101.617 15.2912 101.617 18.5143C101.617 21.9513 103.977 24.9715 107.759 24.9715C109.645 24.9715 111.496 24.2616 112.557 23.0102C113.02 22.4696 113.393 21.7141 113.393 21.2526C113.393 21.0944 113.359 20.9595 113.268 20.8581C113.178 20.7455 113.042 20.6776 112.806 20.6776H110.988C110.626 20.6776 110.378 20.8125 110.197 21.0833C109.667 21.8611 108.899 22.2667 107.77 22.2667C106.076 22.2667 104.981 20.9818 104.903 19.5732H112.783C113.133 19.5732 113.382 19.4941 113.551 19.3256C113.743 19.1451 113.833 18.8856 113.833 18.4009C113.833 16.9251 113.37 15.3927 112.399 14.2204C111.406 13.0369 109.87 12.2367 107.736 12.2367ZM104.925 17.1727C105.072 15.7863 106.133 14.7498 107.748 14.7498C109.329 14.7498 110.423 15.7863 110.57 17.1727H104.925Z" fill="#939CA1"/>
<path d="M37.0839 10.6477C34.1612 6.29627 31.593 4.8301 30.8706 4.14013C30.0769 3.3791 29.472 2.51665 29.0872 2.10139C28.2311 1.16786 27.1231 0.0155238 25.3005 0.0155238C23.5412 0.0155238 22.3787 1.15987 22.001 2.1485C21.8914 2.4304 21.805 2.77538 21.7266 2.90076C21.5538 3.18345 20.7761 4.50827 20.4537 5.03373H21.9074L21.2002 6.36654C22.025 6.18607 22.6139 6.05271 23.3995 6.05271C24.0988 6.05271 24.6012 6.21801 24.8213 6.65643C25.2301 7.47256 25.2301 9.94174 25.9214 11.8008C26.5654 13.5481 28.1367 15.2578 29.9041 16.5675C29.9273 16.5826 29.9513 16.5906 29.9825 16.5906C30.0689 16.5906 30.1241 16.5283 30.1241 16.4653C30.1241 16.4181 30.1081 16.387 30.0689 16.3479C28.592 14.8737 27.3903 13.243 26.7462 11.4558C26.1094 9.71494 26.2118 7.26813 25.6541 6.17808C25.2845 5.45697 24.4996 5.26931 23.7764 5.26931C23.1955 5.26931 22.6531 5.3867 22.4019 5.44101L23.0379 4.36693H21.9618C22.1898 3.96764 22.4251 3.59871 22.5435 3.3791C22.6451 3.19064 22.6851 2.95586 22.8107 2.63483C23.2187 1.60707 24.122 0.956239 25.3005 0.956239C26.7774 0.956239 27.6415 1.90494 28.4976 2.85364C28.8904 3.29285 29.5344 4.21041 30.2809 4.89239C30.7913 5.36274 31.7658 5.8882 33.266 7.43343C34.13 8.32703 35.1357 9.48735 36.1958 11.0398C39.9905 16.5826 42.4803 21.4675 43.8708 25.2783L43.8476 25.2942C39.8649 22.5967 36.4158 20.0484 33.6356 16.9045C31.6634 14.6701 29.9513 12.0827 28.4584 8.78142C28.3559 8.56181 28.2703 8.35818 28.1759 8.14656C28.1367 8.06031 28.0975 8.03635 28.0343 8.03635C27.9559 8.03635 27.9007 8.09145 27.9007 8.16971C27.9007 8.25596 27.9399 8.44442 28.0263 8.82055C28.82 12.2392 31.0194 15.3049 33.3684 17.8532C35.7094 20.3862 38.356 22.5655 40.5321 24.1499L42.2291 28.9948C42.2683 29.113 42.3155 29.2384 42.3155 29.3558C42.3155 29.442 42.2915 29.5123 42.2371 29.5594C42.1899 29.6065 42.1275 29.6305 41.9859 29.6305H41.4754C41.2554 29.6305 41.1682 29.5985 41.0898 29.5362C41.0114 29.4731 40.957 29.3789 40.917 29.2695C40.7682 28.8143 39.8721 26.2661 39.7001 25.7486C39.6681 25.6552 39.6129 25.6232 39.5505 25.6232C39.4721 25.6232 39.4169 25.6863 39.4169 25.7566C39.4169 25.8197 39.4401 25.89 39.4801 26.1096C39.7073 27.2699 39.9745 28.5716 40.0841 29.0659C40.1321 29.2927 40.1865 29.5051 40.1865 29.6616C40.1865 29.8022 40.1553 29.8812 40.0377 29.9986L39.5113 30.532C39.3857 30.6574 39.3144 30.6886 39.2128 30.6886C39.0872 30.6886 38.9848 30.6023 38.9376 30.3827C38.3408 27.5989 37.4375 24.1499 37.2015 23.1924C37.1463 22.9816 37.1071 22.8634 36.9815 22.8634C36.8718 22.8634 36.8326 22.9416 36.8326 23.0359C36.8326 23.1062 36.8478 23.1924 36.8558 23.2555C36.9975 24.2433 37.5711 27.8425 38.1912 31.1278C38.3016 31.6924 38.5136 32.0054 39.0008 32.0054C39.2208 32.0054 39.4321 31.9192 39.6289 31.7315C39.9513 31.4097 40.0449 31.3234 40.4305 30.9473C40.705 30.6806 40.8938 30.5712 41.365 30.5712H42.5275C42.8027 30.5712 42.9515 30.5009 43.0852 30.3747C43.2108 30.2573 43.2892 30.0928 43.2892 29.8573C43.2892 29.6145 43.2268 29.4188 43.1404 29.1753C42.8419 28.3759 41.8835 25.6704 41.6002 24.9101L41.6242 24.8941C42.6059 25.6392 44.0356 26.5879 44.6645 26.5879C44.8605 26.5879 44.9789 26.5017 44.9789 26.1958C44.9789 24.7536 42.5747 18.8178 37.0839 10.6477Z" fill="#939CA1"/>
<path d="M10.1161 1.53659C10.2809 1.17564 10.6426 0.92489 11.0746 0.92489C11.6635 0.92489 12.1347 1.38007 12.1347 1.98379C12.1347 2.33596 11.9699 2.64261 11.7107 2.83028C11.7659 3.03471 11.8051 3.21439 11.8051 3.38688C11.8051 4.0457 11.4122 4.50807 10.6898 4.75163C10.5954 5.15092 10.4226 5.51187 10.1393 5.77859C9.6681 6.23298 9.18886 6.23298 9.18886 6.42144C9.18886 6.52366 9.26007 6.58595 9.45608 6.58595C10.3282 6.58595 11.1842 6.10042 11.2866 5.29226C12.1195 5.01037 12.6219 4.17107 12.6219 3.50507C12.6219 3.33178 12.6059 3.18324 12.5355 3.0427C12.7636 2.82229 13.0308 2.44616 13.0308 1.88956C13.0308 1.40323 12.818 0.909717 12.4411 0.548763C12.1115 0.22694 11.6475 0.0153198 11.1058 0.0153198C10.3202 0.0153198 9.80971 0.43936 9.51929 0.854616C8.66242 0.854616 7.55513 1.80332 7.55513 3.16008H7.43752C7.35831 2.68973 6.87187 2.37509 6.46304 2.35193C6.13341 1.3641 5.38695 0.51762 4.16125 0.51762C4.02044 0.51762 3.84762 0.525605 3.69801 0.548763C3.33718 0.218954 2.93635 0.0153198 2.3787 0.0153198C1.30982 0.0153198 0.437744 0.870587 0.437744 1.95185C0.437744 2.62664 0.744169 3.08901 1.32582 3.49708C1.32582 3.49708 1.31782 3.58333 1.31782 3.62246C1.31782 4.48491 2.26029 5.83369 3.65881 5.83369C3.65881 6.0525 3.93403 6.35117 4.24046 6.40547V6.51567H4.12205C2.19789 6.51567 1.38102 7.44121 1.38102 8.06011C0.807374 8.29568 0.437744 8.93055 0.437744 9.51829C0.437744 10.6866 1.29461 11.5179 2.42591 11.5179C2.80274 11.5179 3.18757 11.3694 3.45479 11.1649C3.65081 11.2352 3.90203 11.2743 4.16125 11.2743C4.70369 11.2743 5.30854 11.0867 5.73258 10.467C5.79578 10.475 5.85019 10.475 5.91339 10.475C6.60465 10.475 7.2015 10.0198 7.51592 9.42406C7.59433 9.27553 7.62553 9.15814 7.62553 9.07109C7.62553 8.98565 7.58633 8.91457 7.49992 8.91457C7.39031 8.91457 7.37431 9.01679 7.1783 9.19727C6.73826 9.59735 6.0622 9.74588 5.37095 9.74588C5.03332 10.2402 4.61729 10.4989 4.13805 10.4989C3.78442 10.4989 3.51 10.4047 3.22677 10.2162C2.99875 10.467 2.71633 10.5692 2.44111 10.5692C1.82106 10.5692 1.38102 10.138 1.38102 9.51031C1.38102 9.07109 1.66344 8.6798 2.05628 8.53046C2.12668 7.75425 2.95955 7.22879 3.99644 7.22879C4.13005 7.22879 4.26366 7.23678 4.40527 7.25275C4.56208 7.002 4.93891 6.73528 5.47336 6.66421C5.58377 6.64903 5.66937 6.64105 5.73258 6.6099C5.79578 6.57796 5.82698 6.51567 5.82698 6.4446C5.82698 6.38231 5.80298 6.32721 5.74058 6.28808C5.68537 6.25694 5.59097 6.24176 5.48136 6.21781C4.98612 6.12358 4.39727 5.81772 4.09884 5.07266C2.91235 5.07266 2.04028 4.12396 2.04028 3.05787V2.98759C1.64744 2.83028 1.38102 2.45415 1.38102 2.00695C1.38102 1.4192 1.84426 0.948847 2.43311 0.948847C2.78674 0.948847 3.09316 1.12134 3.28998 1.38007C3.45479 1.33296 3.64281 1.31699 3.82362 1.31699C4.70369 1.31699 5.64617 1.87359 5.82698 2.95565C6.95828 3.05787 7.2255 4.01455 7.29591 4.41464C7.33511 4.61827 7.36631 4.79076 7.49992 4.79076C7.64153 4.79076 7.67274 4.63344 7.71994 4.42182C7.80635 4.02254 7.95596 3.70072 8.25438 3.44997C8.25438 2.42221 9.02405 1.53659 10.1161 1.53659Z" fill="#939CA1"/>
<path d="M12.402 7.68362C12.0323 8.20908 11.7659 8.46782 10.925 9.45564C9.81774 10.7653 9.2361 11.8242 8.26962 14.176C8.42723 14.16 8.65525 14.1448 8.90647 14.1448C9.03208 14.1448 9.13369 14.1448 9.2993 14.152L9.41691 13.9013C9.95936 12.741 10.689 11.1726 11.7107 9.96513L12.0643 9.54988C13.1164 8.31928 13.7685 7.58939 14.1773 5.9116C14.3189 5.31586 14.4365 4.78322 14.8374 4.39831C15.1982 4.05333 15.6542 3.90479 16.1175 3.90479C16.5103 3.90479 16.8015 3.99902 17.2255 4.1787C17.6104 4.34321 17.7512 4.37515 18.16 4.37515C18.3016 4.37515 18.4032 4.36716 18.4977 4.35918L17.948 5.09626L18.6945 5.62172C17.7592 5.89562 17.2648 6.79801 17.0991 7.21326C17.0679 7.29951 17.0527 7.35461 17.0527 7.40971C17.0527 7.4728 17.0839 7.53509 17.1783 7.53509C17.28 7.53509 17.3584 7.45683 17.492 7.29951C17.948 6.75089 18.3096 6.37397 19.9898 5.84931L18.8041 4.95491L19.6994 3.64605H18.8593C18.3248 3.64605 17.9712 3.63807 17.508 3.42645C16.8791 3.13657 16.5575 3.01119 15.9999 3.01119C15.3166 3.01119 14.6957 3.25396 14.1853 3.72431C13.5957 4.26495 13.4148 4.98685 13.2036 5.77903C13.038 6.38994 12.842 7.06473 12.402 7.68362Z" fill="#939CA1"/>
<path d="M14.2086 13.0232C13.7606 13.6269 13.1478 14.4183 12.6765 15.2576C12.8261 15.3287 13.3214 15.5954 13.4942 15.6888C14.0358 14.8735 14.7903 13.8705 15.2847 13.1094C15.7328 12.4195 15.9136 12.1216 15.9448 11.1961C15.9528 11.0396 15.9528 10.8902 15.968 10.7417C16.0072 10.2633 16.1336 9.77702 16.5888 9.33062C16.9265 8.99282 17.4137 8.82113 17.9009 8.82113C18.3722 8.82113 18.6466 8.95369 19.0554 8.95369C19.3459 8.95369 19.5579 8.88342 19.7467 8.81314L19.8963 8.75804L19.5347 9.62129L20.3828 9.96548C19.8411 10.3025 18.6546 11.7535 18.6546 13.4704C18.6546 14.0901 18.749 14.6619 18.8826 15.1714C18.8986 15.2265 18.9298 15.2816 19.0162 15.2816C19.0946 15.2816 19.1498 15.2344 19.1579 15.1482L19.1658 14.9677C19.1891 14.4423 19.2283 13.6117 19.4403 12.8667C19.7939 11.6121 20.7444 10.4358 21.6949 9.87125L20.3435 9.2835L20.9252 7.86444L20.2891 7.9978C19.9043 8.07606 19.6211 8.14634 19.2835 8.14634C19.0634 8.14634 18.8122 8.11519 18.5138 8.04412C18.2858 7.98982 18.0418 7.9427 17.6969 7.9427C17.0761 7.9427 16.408 8.17748 15.9528 8.6167C15.1199 9.40888 15.0727 10.2633 15.0175 11.0244C14.9471 12.0354 14.7583 12.2861 14.2086 13.0232Z" fill="#939CA1"/>
<path d="M34.3658 13.5014C34.3106 13.4311 34.2634 13.3992 34.201 13.3992C34.1066 13.3992 34.0594 13.4623 34.0594 13.5325C34.0594 13.6428 34.1378 13.7761 34.3346 14.1059C34.9314 15.1169 35.6699 16.1359 36.5812 17.0934C37.5629 18.1355 38.7174 19.1074 39.9511 19.9778L40.3359 20.2445C40.3911 20.2845 40.4303 20.3076 40.4775 20.3076C40.5559 20.3076 40.6111 20.2294 40.6111 20.1663C40.6111 20.1271 40.5951 20.0872 40.5479 20.0481C39.4014 19.0059 38.1677 17.7354 37.0132 16.5128C36.1091 15.5481 35.1827 14.5292 34.3658 13.5014Z" fill="#939CA1"/>
<path d="M9.08696 9.94974C9.20457 9.75409 9.5582 9.27575 9.69981 9.12642C9.09496 7.90381 8.10528 6.7355 7.67324 6.27233L7.31161 6.6253C7.72845 7.22902 8.4269 8.39733 9.08696 9.94974Z" fill="#939CA1"/>
<path d="M3.32896 2.86971C3.25775 2.80662 3.24255 2.76749 3.24255 2.72038C3.24255 2.66607 3.28175 2.60299 3.36816 2.60299C3.39936 2.60299 3.43057 2.61097 3.47057 2.62694C4.05142 2.86172 4.54666 3.13643 4.98669 3.47343C5.35552 3.75532 5.71715 4.1011 6.06998 4.51636L5.74035 4.89248C5.33232 4.55469 4.01221 3.45027 3.32896 2.86971Z" fill="#939CA1"/>
<path d="M8.89848 5.49631L8.47444 5.23757C8.74887 4.58674 9.08729 3.991 9.48733 3.54381C9.77055 3.22278 10.0378 2.96325 10.3362 2.70531C10.4066 2.65021 10.4458 2.60309 10.5162 2.60309C10.5954 2.60309 10.6506 2.66618 10.6506 2.72847C10.6506 2.75961 10.6346 2.79874 10.6034 2.84586C10.1242 3.59092 9.1889 5.06508 8.89848 5.49631Z" fill="#939CA1"/>
<path d="M3.57256 9.1342C3.47015 9.17333 3.42295 9.19728 3.36854 9.19728C3.28213 9.19728 3.24213 9.12621 3.24213 9.07111C3.24213 9.01681 3.26613 8.98566 3.32134 8.93775C4.28702 8.1855 5.13589 7.88763 6.30638 7.69118L6.44719 8.16234L3.57256 9.1342Z" fill="#939CA1"/>
<path d="M23.7216 3.05018C23.7216 2.77547 23.8632 2.28116 24.3736 2.28116C24.5464 2.28116 24.7113 2.32029 24.8449 2.38338C25.0337 2.46962 25.1593 2.595 25.1593 2.72836C25.1593 2.8697 25.0177 3.01105 24.8057 3.18354C24.5857 3.36322 24.3032 3.52852 24.0752 3.52852C23.8008 3.52852 23.7216 3.26899 23.7216 3.05018Z" fill="#939CA1"/>
<path d="M15.7484 5.33946C15.7484 5.00246 15.9524 4.63352 16.3452 4.63352C16.518 4.63352 16.722 4.7038 16.8717 4.84594C16.9581 4.9242 16.9973 5.00965 16.9973 5.09669C16.9973 5.28516 16.8165 5.46483 16.6044 5.59021C16.4396 5.68444 16.2668 5.74753 16.118 5.74753C15.874 5.74753 15.7484 5.5974 15.7484 5.33946Z" fill="#939CA1"/>
<path d="M17.5944 10.1773C17.5944 10.099 17.6024 10.0048 17.6336 9.91057C17.6968 9.70693 17.8297 9.51048 18.1601 9.51048C18.3097 9.51048 18.4737 9.54961 18.6073 9.64464C18.7257 9.7229 18.7729 9.82432 18.7729 9.92654C18.7729 10.2635 18.2073 10.6556 17.9241 10.6556C17.72 10.6556 17.5944 10.4592 17.5944 10.1773Z" fill="#939CA1"/>
<path d="M14.4994 20.072C13.4393 20.072 12.9672 19.5705 12.9672 18.9356C12.9672 17.8216 14.9234 16.7324 16.6827 16.0576L17.1388 16.6461C16.0547 17.0765 13.8713 18.0029 13.8713 18.8023C13.8713 19.0842 14.0361 19.2886 14.6954 19.2886C15.8427 19.2886 17.0764 18.7312 18.2149 18.1746C18.3013 18.1355 18.4037 18.0963 18.4981 18.0963C18.6469 18.0963 18.7413 18.1434 18.8509 18.3L19.0397 18.5587C17.7124 19.2886 16.0547 20.072 14.4994 20.072Z" fill="#939CA1"/>
<path d="M17.4217 20.3703C16.3848 20.95 15.3088 21.3349 14.3583 21.3349C13.2974 21.3349 12.3549 20.8798 11.5693 19.6955C11.2396 19.194 10.9804 18.5671 10.666 18.0105C10.2891 17.3517 9.88031 16.9987 9.16585 16.9987C8.5138 16.9987 7.87695 17.2654 7.20169 17.5553L7.2329 17.7046C7.2881 17.9474 7.38251 18.1199 7.60973 18.1199C7.71213 18.1199 7.81454 18.0736 7.86975 18.0576C8.24658 17.9394 8.521 17.8372 8.90663 17.8372C9.49548 17.8372 9.7779 18.183 10.1787 19.0295L10.3283 19.3433C9.91952 19.4847 8.96104 19.5549 8.24658 19.5549H7.90895L7.96416 19.8919C7.98736 20.0333 8.04256 20.1507 8.16017 20.2058C8.30098 20.276 8.5058 20.284 8.85943 20.284C9.7547 20.284 10.4068 20.1746 10.7836 20.0796C11.7501 21.5154 13.0774 22.064 14.3583 22.064C15.4496 22.064 16.5577 21.6639 17.6185 21.0842L17.4217 20.3703Z" fill="#939CA1"/>
<path d="M18.4898 20.7231L18.3018 20.0012C19.9195 19.1315 21.3965 18.4336 23.7534 18.206C23.8007 19.1076 23.7374 20.2448 24.4055 20.2448C25.0176 20.2448 26.3529 18.6684 27.893 16.6927C28.0346 16.8261 28.2618 16.9674 28.4666 17.1239L28.0738 17.6334C26.5729 19.5628 25.2928 21.2094 24.2399 21.2094C23.2582 21.2094 22.8886 20.0563 22.8734 19.1938C21.3733 19.3432 19.9587 19.8447 18.4898 20.7231Z" fill="#939CA1"/>
<path d="M39.2756 4.98663C38.6627 4.98663 38.4899 4.64884 38.4899 4.17129C38.4899 3.18346 39.1108 1.7644 39.5036 0.956253H38.5523C38.0579 1.91294 36.1097 4.97865 35.0568 6.24917L35.6617 6.8992C36.2273 6.27233 36.8482 5.20624 37.5234 4.15532H37.649C37.649 4.21042 37.6418 4.27271 37.6418 4.32781C37.6418 5.21422 38.0971 5.87224 39.2204 5.87224C39.9116 5.87224 40.9957 5.52726 42.0174 5.18228C42.8655 4.8924 43.6431 4.59453 44.028 4.48513V3.54442C43.5879 3.67698 42.6926 4.02196 41.7654 4.34378C40.7917 4.68078 39.8332 4.98663 39.2756 4.98663Z" fill="#939CA1"/>
<path d="M41.3728 7.83264C42.3153 7.43336 44.0042 6.75857 44.9787 6.4056V5.44891C43.0225 6.17082 39.5895 7.58988 37.2485 8.8604C37.3117 8.93786 37.7205 9.51044 37.7669 9.58151C38.7566 9.17344 39.6447 8.90672 40.4455 8.90672C41.5696 8.90672 42.4881 8.90672 44.0282 8.54576V7.82466C43.1641 7.98198 42.2449 8.16964 41.648 8.16964C41.2944 8.16964 41.192 8.12252 41.192 8.00513C41.192 7.93486 41.2392 7.88774 41.3728 7.83264Z" fill="#939CA1"/>
<path d="M21.2471 12.2391L20.8694 12.961H24.8842L24.5857 12.2391H21.2471Z" fill="#939CA1"/>
<path d="M6.78522 16.5438C7.20926 16.5438 7.55489 16.4024 7.88531 16.2698C8.19894 16.1437 8.51336 16.0183 8.9374 16.0183C9.94308 16.0183 11.184 16.5046 12.2761 16.967C12.3393 16.991 12.4097 17.0061 12.4801 17.0061C12.6537 17.0061 12.7873 16.9279 12.8729 16.7634L13.0145 16.5046C11.8128 15.8067 9.89588 15.0616 8.8982 15.0616C8.44296 15.0616 8.11253 15.1798 7.79891 15.3044C7.44528 15.4465 7.13885 15.5951 6.81643 15.5951C6.02356 15.5951 3.98899 14.8109 3.98899 14.0506C3.98899 13.157 7.22526 12.812 7.57889 12.812L7.90051 12.0822C5.55232 12.0822 2.75529 12.9055 2.75529 13.9955C2.75529 14.3094 2.93611 14.4659 2.93611 14.7558C2.93611 15.1479 2.75529 15.4146 2.75529 15.8538C2.75529 16.1437 2.92811 16.5126 3.13212 16.8344C3.35214 17.1714 3.61136 17.3902 3.61136 17.6729C3.61136 17.8846 3.47055 18.1353 3.47055 18.6296C3.47055 19.6877 4.0754 20.3314 5.2531 21.5931L5.48912 21.8439C4.51544 22.2208 2.70009 23.005 2.27605 23.1847C0.807134 23.7964 0.438304 24.5414 0.438304 25.7177C0.438304 26.1721 0.438304 26.6896 0.469506 27.152H0.75193C1.34158 27.152 1.41198 26.7998 1.41198 26.4628C1.41198 26.2352 1.40398 25.9765 1.40398 25.6938C1.41198 25.0437 1.43599 24.4632 2.48807 23.9928C2.91291 23.8044 4.99388 22.9579 6.542 22.299C6.99724 22.1026 7.42128 21.9381 7.89251 21.9381C8.41896 21.9381 9.02381 22.1657 9.77827 22.6129C10.4143 22.989 11.0824 23.4985 11.6088 24.0862L12.2761 23.5768C11.7024 22.9028 10.9096 22.299 10.1159 21.8287C9.32223 21.3583 8.61577 21.0836 8.01892 21.0836C7.7597 21.0836 7.54769 21.1307 7.36687 21.1779C7.15485 21.233 6.95804 21.2952 6.70682 21.2952C6.41639 21.2952 6.17237 21.225 5.81874 20.8169C5.68513 20.6684 4.83706 19.7037 4.65625 19.4218C4.56984 19.2884 4.41303 19.0217 4.41303 18.7079C4.41303 18.5745 4.43623 18.418 4.51544 18.2767C5.2451 18.8412 6.14917 19.1862 7.24846 19.3196L7.09965 18.5745C5.52032 18.1593 3.83938 16.7714 3.83938 15.8778C3.83938 15.6893 3.88659 15.5559 3.95779 15.3914C4.56984 15.956 6.00756 16.5438 6.78522 16.5438Z" fill="#939CA1"/>
<path d="M18.0895 16.6852C19.0791 15.9872 20.1 15.909 20.9249 15.909C21.4201 15.909 22.001 15.9792 22.6138 16.0575C23.1091 16.1206 23.5563 16.1677 24.0908 16.1677C25.1668 16.1677 26.2509 15.7756 26.7222 15.5712C26.8558 15.7365 27.0838 15.9561 27.2646 16.1126C27.0366 16.2539 25.5917 17.0373 24.1148 17.0373C23.4627 17.0373 22.8419 16.9599 22.3074 16.8888C21.8362 16.8265 21.3257 16.7714 20.8305 16.7714C20.2888 16.7714 19.1968 16.9279 18.5215 17.2498L18.0895 16.6852Z" fill="#939CA1"/>
<path d="M32.6769 19.4843C31.4984 21.9622 29.707 23.7654 27.8693 24.8083C26.9972 25.3019 26.2115 25.6237 24.5154 25.6237H20.8463C19.535 25.6237 18.7101 25.7962 18.0661 25.9607C17.374 26.1412 16.9348 26.3208 16.2355 26.3208C15.1986 26.3208 14.2401 25.8113 13.7769 25.3258L14.641 24.6438L14.2089 24.0705C13.9577 24.2517 10.8863 26.5173 10.2414 27.0268L10.2022 27.0036C10.2182 26.8471 10.2182 26.7057 10.2182 26.5644C10.2182 24.8395 9.41655 24.4234 8.19965 23.9379L7.37478 24.4234C9.04772 24.9808 9.46375 25.4272 9.46375 26.6738C9.46375 27.6624 9.11013 28.0537 8.59968 28.3524C8.07324 28.6582 7.42119 28.7988 6.84834 28.7988C6.60432 28.7988 6.49471 28.8459 6.4083 28.9322C6.3139 29.0264 6.26669 29.1677 6.26669 29.3634V29.6381H6.46351C7.51559 29.6381 8.49008 29.4736 9.55816 28.6343L13.0384 25.9215C13.5329 26.4861 14.7826 27.2703 16.2587 27.2703C17.0916 27.2703 17.626 27.0659 18.3957 26.8702C18.9925 26.7209 19.5742 26.5876 20.8463 26.5876H24.5306C26.4163 26.5876 27.3276 26.1955 28.3325 25.6317C30.5167 24.4083 32.3784 22.3384 33.4313 19.9618C33.1561 19.7901 32.8969 19.6328 32.6769 19.4843Z" fill="#939CA1"/>
<path d="M26.7617 22.4325C27.7122 20.9112 28.5603 19.5624 30.6421 18.4652C30.422 18.3318 30.1084 18.1282 29.9428 18.018C29.1339 18.371 28.3331 19.0761 27.6498 19.79C26.0785 21.4207 26.2193 22.3614 24.5624 22.9971C24.1455 23.1536 23.6351 23.3261 22.983 23.4754C22.5982 22.2911 21.6325 21.1148 20.6108 21.1148C19.9036 21.1148 19.0867 21.483 18.1442 21.899C17.0369 22.3854 16.0233 22.942 15.7016 23.1536L16.1337 23.7341C16.4633 23.5529 17.4138 23.0825 18.3643 22.6752C19.1891 22.3223 19.9356 22.0324 20.438 22.0324C21.2469 22.0324 21.7733 22.95 22.0646 23.6862C21.0037 23.9378 19.2595 24.0001 18.7339 24.0001C18.4899 24.0001 18.4035 24.0392 18.317 24.1103C18.2386 24.1805 18.1754 24.3059 18.1362 24.4784L18.0738 24.7451H18.6387C21.5773 24.7451 24.3503 24.2828 26.1329 23.2007C26.3849 23.2718 26.6049 23.3181 26.8873 23.3181C27.9082 23.3181 28.9611 22.7615 29.6212 22.252C29.8564 22.0715 29.9116 21.9062 29.9116 21.7265C29.9116 21.6403 29.9036 21.562 29.8956 21.483L29.8644 21.1779C28.9219 21.9222 28.1362 22.4796 27.1626 22.4796C26.9898 22.4796 26.8641 22.4636 26.7617 22.4325Z" fill="#939CA1"/>
</svg>
