<svg width="108" height="30" viewBox="0 0 108 30" fill="none" xmlns="http://www.w3.org/2000/svg">
<path d="M15.2142 27.3914C13.6044 27.6741 11.9664 27.7588 10.2719 27.9846L5.10342 12.8468V28.6343C3.49367 28.8037 2.0251 29.0296 0.5 29.2555V0.335449H4.79294L10.6672 16.7444V0.335449H15.2142V27.3914ZM24.1105 10.9263C25.8617 10.9263 28.5447 10.8416 30.1544 10.8416V15.3602C28.1491 15.3602 25.8051 15.3602 24.1105 15.445V22.1667C26.7654 21.9973 29.4202 21.7712 32.1031 21.6865V26.0355L19.5917 27.0242V0.335449H32.1031V4.85422H24.1105V10.9263ZM48.9072 4.85432H44.219V25.6406C42.6939 25.6406 41.1688 25.6406 39.7005 25.6969V4.85432H35.0123V0.335449H48.9074L48.9072 4.85432ZM56.2501 10.6157H62.4353V15.1344H56.2501V25.3864H51.8158V0.335449H64.4405V4.85422H56.2501V10.6157ZM71.7834 21.4324C74.3535 21.4887 76.9516 21.6868 79.4653 21.8277V26.2901C75.4268 26.0357 71.3881 25.7819 67.2647 25.6969V0.335449H71.7834V21.4324ZM83.278 26.6008C84.7183 26.6856 86.2434 26.7704 87.712 26.9396V0.335449H83.278V26.6008ZM107.51 0.335449L101.777 14.0895L107.51 29.2555C105.815 29.0296 104.121 28.7189 102.426 28.4364L99.1785 20.0769L95.8744 27.7589C94.2361 27.4762 92.6545 27.3914 91.0168 27.1655L96.8346 13.9199L91.5814 0.335449H96.4389L99.4043 7.93264L102.568 0.335449H107.51V0.335449Z" fill="#D81F26"/>
</svg>
