<svg width="116" height="33" viewBox="0 0 116 33" fill="none" xmlns="http://www.w3.org/2000/svg">
<path d="M57.9944 11.9438C56.9075 11.0523 55.5242 10.4579 54.0421 10.4579C52.9552 10.4579 51.4731 11.1513 51.4731 12.34C51.4731 13.6277 53.054 14.123 54.1409 14.5192L55.623 15.0144C58.7848 16.005 61.255 17.5899 61.255 21.2549C61.255 23.5331 60.761 25.8114 58.8836 27.3963C57.1051 28.8821 54.7337 29.5754 52.4612 29.5754C49.5958 29.5754 46.8292 28.5849 44.4578 27L47.0268 22.2454C48.5089 23.5331 50.1886 24.6227 52.2636 24.6227C53.6469 24.6227 55.129 23.9293 55.129 22.3445C55.129 20.6606 52.7576 20.0662 51.5719 19.7691C47.9161 18.7785 45.4459 17.788 45.4459 13.3305C45.4459 8.67496 48.7065 5.70333 53.2516 5.70333C55.5242 5.70333 58.2908 6.39671 60.3657 7.58537L57.9944 11.9438ZM69.0607 3.8213V15.3116H69.1595C70.444 13.6277 71.9261 12.8352 74.0999 12.8352C78.0522 12.8352 79.9295 15.4107 79.9295 19.3728V28.783H74.4951V20.8587C74.4951 19.0757 74.1987 17.1936 72.0249 17.1936C69.8512 17.1936 69.1595 19.0757 69.1595 20.8587V28.783H63.7252V3.8213H69.0607ZM99.0981 21.9483H87.5376C87.5376 24.1275 88.7233 25.4152 90.9959 25.4152C92.1816 25.4152 92.972 25.0189 93.5649 24.0284H98.8016C97.9124 27.6934 94.4541 29.3773 90.9959 29.3773C85.8579 29.3773 82.1032 26.5048 82.1032 21.1558C82.1032 16.005 85.5615 12.9343 90.6006 12.9343C95.9362 12.9343 99.0981 16.2031 99.0981 21.552V21.9483ZM93.9601 18.7785C93.6637 17.2927 92.3792 16.3022 90.8971 16.3022C89.3162 16.3022 88.0317 17.1936 87.6364 18.7785H93.9601ZM101.272 3.8213H106.706V28.8821H101.272V3.8213ZM109.967 3.8213H115.5V28.8821H109.967V3.8213Z" fill="#DD1D21"/>
<path fill-rule="evenodd" clip-rule="evenodd" d="M18.1001 32.9982C16.8411 32.9982 16.1941 32.1753 16.1941 32.1753C15.1594 32.1302 7.0731 32.1528 7.0731 32.1528L6.28585 25.4928C6.28585 25.4928 1.30531 21.9742 0.900439 21.5684C-1.49026 10.6983 7.15101 0.335449 18.1004 0.335449C29.0498 0.335449 37.6911 10.6983 35.3004 21.5684C34.8955 21.9742 29.915 25.4928 29.915 25.4928L29.1277 32.1528C29.1277 32.1528 21.0414 32.1302 20.0067 32.1753C20.0067 32.1753 19.3597 32.9982 18.1001 32.9982Z" fill="#ED1C24"/>
<path fill-rule="evenodd" clip-rule="evenodd" d="M18.1118 22.8695L17.3477 3.64463C16.4263 3.45615 14.0756 3.68233 12.8156 4.62472L16.4827 22.9449L11.4804 5.37863C10.2813 5.3639 7.86149 7.39606 7.68175 7.99849L14.9782 23.5857L6.77909 9.33669C5.97046 9.63825 4.20275 12.8989 4.48483 13.2778L13.6243 24.4904L4.22156 14.9157C4.22156 14.9157 2.99921 16.7816 3.79634 19.9422L9.10742 23.7863L9.77233 29.0381H16.2839C16.2839 29.0381 17.3492 30.0501 18.1051 30.0501C18.861 30.0501 19.9263 29.0381 19.9263 29.0381H26.4379L27.1028 23.7863L32.4139 19.9422C33.211 16.7816 31.9887 14.9157 31.9887 14.9157L22.586 24.4904L31.7254 13.2778C32.0075 12.8989 30.2398 9.63825 29.4311 9.33669L21.232 23.5857L28.5285 7.99849C28.3487 7.39606 25.9289 5.3639 24.7298 5.37863L19.7276 22.9449L23.3946 4.62472C22.1346 3.68233 19.784 3.45615 18.8625 3.64463L18.1118 22.8695Z" fill="#FFD500"/>
</svg>
