<svg width="80" height="34" viewBox="0 0 80 34" fill="none" xmlns="http://www.w3.org/2000/svg">
<path fill-rule="evenodd" clip-rule="evenodd" d="M79.3058 17.1523C79.3058 11.5128 76.5741 7.0629 71.3532 7.0629C66.1102 7.0629 62.938 11.5128 62.938 17.1083C62.938 23.7391 66.6829 27.0876 72.0581 27.0876C74.6796 27.0876 76.6622 26.4928 78.1602 25.6557V21.2498C76.6622 21.9988 74.9439 22.4614 72.763 22.4614C70.6262 22.4614 68.7317 21.7124 68.4893 19.1129H79.2617C79.2617 18.8266 79.3058 17.681 79.3058 17.1523ZM68.4233 15.0595C68.4233 12.5702 69.9433 11.5349 71.3311 11.5349C72.6749 11.5349 74.1068 12.5702 74.1068 15.0595H68.4233Z" fill="#635BFF"/>
<path fill-rule="evenodd" clip-rule="evenodd" d="M54.4345 7.06288C52.2756 7.06288 50.8877 8.07623 50.1167 8.78117L49.8303 7.41535H44.9839V33.1016L50.4912 31.934L50.5132 25.6997C51.3063 26.2725 52.4739 27.0876 54.4124 27.0876C58.3557 27.0876 61.9465 23.9153 61.9465 16.932C61.9244 10.5435 58.2896 7.06288 54.4345 7.06288ZM53.1127 22.2411C51.813 22.2411 51.0419 21.7785 50.5132 21.2057L50.4912 13.0328C51.064 12.394 51.857 11.9534 53.1127 11.9534C55.1174 11.9534 56.5052 14.2004 56.5052 17.0862C56.5052 20.0382 55.1394 22.2411 53.1127 22.2411Z" fill="#635BFF"/>
<path fill-rule="evenodd" clip-rule="evenodd" d="M37.4057 5.7631L42.935 4.57352V0.101562L37.4057 1.26912V5.7631Z" fill="#635BFF"/>
<path d="M42.935 7.43735H37.4057V26.713H42.935V7.43735Z" fill="#635BFF"/>
<path fill-rule="evenodd" clip-rule="evenodd" d="M31.4795 9.06751L31.1271 7.43734H26.3687V26.713H31.8761V13.6496C33.1758 11.9534 35.3787 12.2618 36.0616 12.5041V7.43734C35.3567 7.17299 32.7793 6.68834 31.4795 9.06751Z" fill="#635BFF"/>
<path fill-rule="evenodd" clip-rule="evenodd" d="M20.465 2.65694L15.0899 3.80247L15.0679 21.448C15.0679 24.7083 17.5131 27.1095 20.7735 27.1095C22.5799 27.1095 23.9016 26.7791 24.6286 26.3825V21.9106C23.9237 22.197 20.443 23.2103 20.443 19.95V12.1296H24.6286V7.43731H20.443L20.465 2.65694Z" fill="#635BFF"/>
<path fill-rule="evenodd" clip-rule="evenodd" d="M5.57342 13.0328C5.57342 12.1737 6.27836 11.8433 7.44592 11.8433C9.12015 11.8433 11.235 12.3499 12.9092 13.2531V8.07625C11.0808 7.34928 9.27435 7.0629 7.44592 7.0629C2.97396 7.0629 0 9.39801 0 13.2972C0 19.3773 8.37115 18.408 8.37115 21.0295C8.37115 22.0428 7.48998 22.3733 6.25633 22.3733C4.4279 22.3733 2.09279 21.6243 0.242322 20.6109V25.8539C2.29105 26.7351 4.36181 27.1096 6.25633 27.1096C10.8384 27.1096 13.9886 24.8406 13.9886 20.8973C13.9666 14.3326 5.57342 15.5001 5.57342 13.0328Z" fill="#635BFF"/>
</svg>
