<svg width="154" height="21" viewBox="0 0 154 21" fill="none" xmlns="http://www.w3.org/2000/svg">
<path d="M131.531 8.27178V20.3238H135.383V12.2891H149.472V20.3238H153.324V8.27178H131.531ZM134.943 4.36451H149.802C151.893 3.97928 153.379 2.10819 153.819 0.347168H130.926C131.366 2.10819 132.907 3.92425 134.943 4.36451ZM119.809 20.3238C121.735 19.4983 122.781 18.0675 123.221 16.4165H105.886V0.4022H101.979V20.3238H119.809ZM73.0872 4.30947H86.8452C88.9364 3.70412 90.6424 2.10819 91.0827 0.4022H69.29V12.1791H87.1204V16.3065H73.1423C70.941 16.9118 69.0699 18.3977 68.1343 20.3238H90.9726V8.27178H73.1423L73.0872 4.30947ZM39.1875 4.36451H54.0462C56.1374 3.97928 57.6783 2.10819 58.0635 0.347168H35.1151C35.5554 2.10819 37.0963 3.92425 39.1875 4.36451ZM39.1875 12.2341H54.0462C56.1374 11.8489 57.6783 9.97777 58.0635 8.21675H35.1151C35.5554 9.97777 37.0963 11.7938 39.1875 12.2341ZM39.1875 20.3238H54.0462C56.1374 19.9386 57.6783 18.0675 58.0635 16.3065H35.1151C35.5554 18.0675 37.0963 19.9386 39.1875 20.3238Z" fill="#5E5E5E"/>
<path d="M0.5 0.4022C0.940256 2.16323 2.48115 3.92425 4.51734 4.36451H10.791L11.1212 4.47457V20.2688H15.0285V4.47457L15.3586 4.36451H21.6323C23.7235 3.81419 25.2094 2.16323 25.6496 0.4022V0.347168L0.5 0.4022Z" fill="#5E5E5E"/>
</svg>
