<svg width="104" height="35" viewBox="0 0 104 35" fill="none" xmlns="http://www.w3.org/2000/svg">
<path fill-rule="evenodd" clip-rule="evenodd" d="M100.744 12.059L96.6409 7.95645H89.019V2.67975H82.5694V26.7151H89.019V14.4036H94.2942V26.7151H100.744V12.059ZM80.226 7.95645H70.2601L66.1563 12.059V22.6106L70.2601 26.7151H80.226V20.2673H72.6041V14.4036H80.226V7.95645ZM63.8114 7.95645H58.5362V2.67975H52.0866V22.6106L56.1904 26.7151H63.8114V20.2673H58.5362V14.4036H63.8114V7.95645ZM49.7417 2.67975H43.2939V5.61185H49.7417V2.67975ZM49.7417 7.95645H43.2939V26.7147H49.7417V7.95645ZM40.949 7.95645H34.5006V20.2673H32.1563V7.95645H25.7076V20.2673H23.3636V7.95645H16.914V26.7151H36.8461L40.949 22.6106V7.95645ZM14.5691 7.95645H9.2936V2.67975H2.8452V22.6106L6.9487 26.7151H14.5691V20.2673H9.2936V14.4036H14.5691V7.95645ZM103.087 10.8864V28.4727L94.2942 34.3354H88.4324V31.4033L84.3289 34.3354H79.0537V31.4033L76.1234 34.3354H66.7435L63.8114 31.4033L63.2245 34.3354H55.0187L51.663 31.4033L51.475 34.3354H42.1739L41.845 31.4033L39.3272 34.3354H25.1207L22.1892 33.1629V34.3354H14.5691L5.7755 29.0581L0.5 23.7848V0.335449H11.6388L16.914 5.61185H40.949V0.335449H60.8802V5.61185H66.1563V8.54215L69.0884 5.61185H74.9493L80.226 0.335449H91.3639V5.61185H97.8126L103.087 10.8864Z" fill="#6441A5"/>
</svg>
