<svg width="25" height="20" viewBox="0 0 25 20" fill="none" xmlns="http://www.w3.org/2000/svg">
<path d="M1.70001 1.7501C1.70001 1.5114 1.79483 1.28248 1.96362 1.1137C2.1324 0.944919 2.36132 0.850098 2.60001 0.850098H22.4C22.6387 0.850098 22.8676 0.944919 23.0364 1.1137C23.2052 1.28248 23.3 1.5114 23.3 1.7501C23.3 1.98879 23.2052 2.21771 23.0364 2.38649C22.8676 2.55528 22.6387 2.6501 22.4 2.6501H2.60001C2.36132 2.6501 2.1324 2.55528 1.96362 2.38649C1.79483 2.21771 1.70001 1.98879 1.70001 1.7501ZM1.70001 10.0001C1.70001 9.7614 1.79483 9.53249 1.96362 9.3637C2.1324 9.19492 2.36132 9.1001 2.60001 9.1001H22.4C22.6387 9.1001 22.8676 9.19492 23.0364 9.3637C23.2052 9.53248 23.3 9.7614 23.3 10.0001C23.3 10.2388 23.2052 10.4677 23.0364 10.6365C22.8676 10.8053 22.6387 10.9001 22.4 10.9001H2.60001C2.36132 10.9001 2.1324 10.8053 1.96362 10.6365C1.79483 10.4677 1.70001 10.2388 1.70001 10.0001ZM1.70001 18.2501C1.70001 18.0114 1.79483 17.7825 1.96362 17.6137C2.1324 17.4449 2.36132 17.3501 2.60001 17.3501H22.4C22.6387 17.3501 22.8676 17.4449 23.0364 17.6137C23.2052 17.7825 23.3 18.0114 23.3 18.2501C23.3 18.4888 23.2052 18.7177 23.0364 18.8865C22.8676 19.0553 22.6387 19.1501 22.4 19.1501H2.60001C2.36132 19.1501 2.1324 19.0553 1.96362 18.8865C1.79483 18.7177 1.70001 18.4888 1.70001 18.2501Z" fill="white" stroke="white" stroke-width="1.5"/>
</svg>
